<?xml version="1.0" encoding="UTF-8"?>
<svg version="1.1" xmlns="http://www.w3.org/2000/svg" width="343" height="347">
<path d="M0 0 C113.19 0 226.38 0 343 0 C343 114.51 343 229.02 343 347 C229.81 347 116.62 347 0 347 C0 232.49 0 117.98 0 0 Z " fill="#FEF5F3" transform="translate(0,0)"/>
<path d="M0 0 C1.61386831 0.62658515 3.24696069 1.2032748 4.88305664 1.76928711 C18.54932193 6.63951444 31.54448749 13.47451132 41.89086914 23.73413086 C43.19890243 24.82285318 44.51144733 25.90617711 45.82836914 26.98413086 C54.86230816 34.92250272 62.38525661 45.04586073 67.89086914 55.73413086 C67.89086914 56.72413086 67.89086914 57.71413086 67.89086914 58.73413086 C68.55086914 58.73413086 69.21086914 58.73413086 69.89086914 58.73413086 C73.2840752 66.7724054 76.38082824 74.59202058 78.25024414 83.14819336 C78.82211793 85.74662421 78.82211793 85.74662421 79.90649414 88.13256836 C88.11306969 109.82137517 80.67320299 140.00133462 71.76391602 160.30200195 C62.51244579 180.12161658 48.53871088 197.98877382 29.89086914 209.73413086 C28.88282227 210.40186523 27.87477539 211.06959961 26.83618164 211.75756836 C19.46887618 216.51009874 12.14972786 219.84850552 3.89086914 222.73413086 C2.55650154 223.27324464 1.22301241 223.81454399 -0.10913086 224.35913086 C-18.60585285 231.22711202 -39.91653419 231.44253089 -59.10913086 227.73413086 C-60.89770508 227.41895508 -60.89770508 227.41895508 -62.72241211 227.09741211 C-76.60558339 224.19031291 -92.36829766 218.16092596 -103.10913086 208.73413086 C-104.06948242 208.03416992 -105.02983398 207.33420898 -106.01928711 206.61303711 C-121.60488792 195.1604209 -132.4621997 181.27700357 -141.31225586 164.15209961 C-142.97651533 160.84959186 -142.97651533 160.84959186 -144.68334961 158.34741211 C-146.70437597 154.64311996 -147.64448094 150.81046828 -148.67163086 146.73413086 C-148.88779053 145.88109375 -149.1039502 145.02805664 -149.32666016 144.14916992 C-154.10141106 124.90487149 -154.57355062 106.36226639 -150.85913086 86.85913086 C-150.65473389 85.78445557 -150.45033691 84.70978027 -150.23974609 83.60253906 C-148.91007913 77.20235514 -146.99900296 71.58490324 -144.10913086 65.73413086 C-143.52315595 64.45088751 -142.93847925 63.1670504 -142.35522461 61.88256836 C-129.84362527 35.40839815 -108.31114318 13.45998921 -80.66772461 3.07788086 C-77.76497674 1.98178287 -74.94779571 0.79356517 -72.10913086 -0.45336914 C-50.53248977 -8.78425318 -21.55403092 -8.39265109 0 0 Z " fill="#F1F0F0" transform="translate(212.109130859375,70.265869140625)"/>
<path d="M0 0 C1.61386831 0.62658515 3.24696069 1.2032748 4.88305664 1.76928711 C18.54932193 6.63951444 31.54448749 13.47451132 41.89086914 23.73413086 C43.19890243 24.82285318 44.51144733 25.90617711 45.82836914 26.98413086 C54.86230816 34.92250272 62.38525661 45.04586073 67.89086914 55.73413086 C67.89086914 56.72413086 67.89086914 57.71413086 67.89086914 58.73413086 C68.55086914 58.73413086 69.21086914 58.73413086 69.89086914 58.73413086 C73.2840752 66.7724054 76.38082824 74.59202058 78.25024414 83.14819336 C78.82211793 85.74662421 78.82211793 85.74662421 79.90649414 88.13256836 C88.11306969 109.82137517 80.67320299 140.00133462 71.76391602 160.30200195 C62.51244579 180.12161658 48.53871088 197.98877382 29.89086914 209.73413086 C28.88282227 210.40186523 27.87477539 211.06959961 26.83618164 211.75756836 C19.46887618 216.51009874 12.14972786 219.84850552 3.89086914 222.73413086 C2.55650154 223.27324464 1.22301241 223.81454399 -0.10913086 224.35913086 C-18.60585285 231.22711202 -39.91653419 231.44253089 -59.10913086 227.73413086 C-60.89770508 227.41895508 -60.89770508 227.41895508 -62.72241211 227.09741211 C-76.60558339 224.19031291 -92.36829766 218.16092596 -103.10913086 208.73413086 C-104.06948242 208.03416992 -105.02983398 207.33420898 -106.01928711 206.61303711 C-121.60488792 195.1604209 -132.4621997 181.27700357 -141.31225586 164.15209961 C-142.97651533 160.84959186 -142.97651533 160.84959186 -144.68334961 158.34741211 C-146.70437597 154.64311996 -147.64448094 150.81046828 -148.67163086 146.73413086 C-148.88779053 145.88109375 -149.1039502 145.02805664 -149.32666016 144.14916992 C-154.10141106 124.90487149 -154.57355062 106.36226639 -150.85913086 86.85913086 C-150.65473389 85.78445557 -150.45033691 84.70978027 -150.23974609 83.60253906 C-148.91007913 77.20235514 -146.99900296 71.58490324 -144.10913086 65.73413086 C-143.52315595 64.45088751 -142.93847925 63.1670504 -142.35522461 61.88256836 C-129.84362527 35.40839815 -108.31114318 13.45998921 -80.66772461 3.07788086 C-77.76497674 1.98178287 -74.94779571 0.79356517 -72.10913086 -0.45336914 C-50.53248977 -8.78425318 -21.55403092 -8.39265109 0 0 Z M-60.10913086 21.73413086 C-61.41137912 22.12006551 -62.71878185 22.48907966 -64.03100586 22.83959961 C-87.62766768 29.50926831 -106.35583002 46.20492161 -118.56225586 67.23803711 C-120.29509558 70.64552418 -121.73768013 74.16835897 -123.10913086 77.73413086 C-123.82842773 79.33901367 -123.82842773 79.33901367 -124.56225586 80.97631836 C-132.79843472 100.23403836 -131.07782531 126.3429811 -124.10913086 145.73413086 C-123.44913086 145.73413086 -122.78913086 145.73413086 -122.10913086 145.73413086 C-121.88870117 146.53463867 -121.88870117 146.53463867 -121.66381836 147.35131836 C-117.8662618 159.96619014 -109.51755436 172.68323933 -99.10913086 180.73413086 C-98.32538086 181.53850586 -97.54163086 182.34288086 -96.73413086 183.17163086 C-88.13923299 191.5618883 -77.43389759 197.0437218 -66.10913086 200.73413086 C-65.03147461 201.11311523 -63.95381836 201.49209961 -62.84350586 201.88256836 C-39.69666561 209.92124933 -15.14968733 206.3080092 6.60571289 195.89624023 C26.73952589 185.65724986 45.15011503 166.48553168 52.55493164 144.78833008 C53.86617327 140.48218768 54.92640154 136.13127345 55.89086914 131.73413086 C56.15565063 130.57216187 56.15565063 130.57216187 56.42578125 129.38671875 C57.3069468 124.36106853 57.07550209 119.2606438 57.07836914 114.17163086 C57.09061523 113.0546582 57.10286133 111.93768555 57.11547852 110.78686523 C57.13292941 100.75260256 55.94130988 91.22350605 52.82836914 81.67163086 C52.48676758 80.6081543 52.14516602 79.54467773 51.79321289 78.44897461 C51.15996205 76.54373939 50.52576503 74.63881852 49.89086914 72.73413086 C49.23086914 72.73413086 48.57086914 72.73413086 47.89086914 72.73413086 C47.68461914 71.97100586 47.47836914 71.20788086 47.26586914 70.42163086 C44.45865801 62.89320102 40.91699328 56.14219098 34.89086914 50.73413086 C34.18961914 49.82663086 33.48836914 48.91913086 32.76586914 47.98413086 C21.64575085 34.50834888 2.84105233 24.1028726 -14.29663086 21.17163086 C-21.86117724 19.85810767 -21.86117724 19.85810767 -24.10913086 18.73413086 C-28.45770722 18.46071365 -32.81544859 18.50238621 -37.17163086 18.48413086 C-38.3749707 18.46350586 -39.57831055 18.44288086 -40.81811523 18.42163086 C-47.93677165 18.39052805 -53.52358357 19.11666373 -60.10913086 21.73413086 Z " fill="#F3451F" transform="translate(212.109130859375,70.265869140625)"/>
<path d="M0 0 C4.82615721 1.44042231 8.99116169 3.46046188 13.375 5.875 C14.70924776 6.59837174 16.04387925 7.32103616 17.37890625 8.04296875 C18.00941895 8.38505371 18.63993164 8.72713867 19.28955078 9.07958984 C21.86355514 10.46468782 24.46869787 11.7776005 27.09765625 13.0546875 C28.59972833 13.80109703 30.08300782 14.58532026 31.55859375 15.3828125 C32.44675781 15.85460937 33.33492187 16.32640625 34.25 16.8125 C35.05953125 17.25207031 35.8690625 17.69164062 36.703125 18.14453125 C39.38243376 19.14243706 40.34294457 18.8821424 43 18 C51.59743703 17.27794962 51.59743703 17.27794962 55 20 C55.495 21.98 55.495 21.98 56 24 C79.76 24 103.52 24 128 24 C128 26.31 128 28.62 128 31 C104.24 31 80.48 31 56 31 C55.34 32.32 54.68 33.64 54 35 C50.44652568 37.36898288 48.4077541 37.59739894 44.23046875 37.515625 C41.47752491 36.87921767 40.63039143 36.04381821 38.9375 33.8125 C37.15421689 30.8077901 36.4643132 28.53553291 37 25 C36.15179688 24.73445313 35.30359375 24.46890625 34.4296875 24.1953125 C30.87259054 22.95559534 27.53406601 21.47517384 24.125 19.875 C22.97257812 19.33617187 21.82015625 18.79734375 20.6328125 18.2421875 C19.76398438 17.83226562 18.89515625 17.42234375 18 17 C18 16.34 18 15.68 18 15 C17.34644531 14.91878906 16.69289062 14.83757812 16.01953125 14.75390625 C11.91939836 13.73019907 8.42737607 11.87261014 4.6875 9.9375 C3.57665039 9.37192383 3.57665039 9.37192383 2.44335938 8.79492188 C0.62612478 7.86871843 -1.18732404 6.93509371 -3 6 C-1.125 1.125 -1.125 1.125 0 0 Z " fill="#3B3A4B" transform="translate(129,155)"/>
<path d="M0 0 C1.65 0 3.3 0 5 0 C5.33 22.44 5.66 44.88 6 68 C3.69 68 1.38 68 -1 68 C-0.67 45.56 -0.34 23.12 0 0 Z " fill="#CFCDDE" transform="translate(174,105)"/>
</svg>
