<svg version="1.1" id="Layer_1" xmlns="http://www.w3.org/2000/svg" xmlns:xlink="http://www.w3.org/1999/xlink" x="0px" y="0px"
	 width="100%" viewBox="0 0 349 351" enable-background="new 0 0 349 351" xml:space="preserve">
<path fill="#FFF6F4" opacity="1.000000" stroke="none" 
	d="
M238.000000,352.000000 
	C158.666687,352.000000 79.833359,352.000000 1.000032,352.000000 
	C1.000021,235.000031 1.000021,118.000069 1.000011,1.000079 
	C117.333282,1.000053 233.666565,1.000053 349.999878,1.000026 
	C349.999939,117.999916 349.999939,234.999832 349.999969,351.999878 
	C312.833344,352.000000 275.666656,352.000000 238.000000,352.000000 
M258.240631,96.635887 
	C260.619659,99.214508 262.998657,101.793129 265.776550,104.804100 
	C267.868774,102.049973 269.415558,100.013802 271.587372,97.495338 
	C276.329773,96.577339 281.072144,95.659348 285.770477,94.749878 
	C285.770477,84.549431 285.770477,74.328018 285.770477,64.254051 
	C271.159637,64.254051 256.940247,64.254051 242.677795,64.254051 
	C242.677795,74.870056 242.677795,85.102463 242.677795,96.045975 
	C248.008255,96.045975 252.965317,96.045975 258.240631,96.635887 
M250.559708,167.117645 
	C253.048660,157.220215 256.261780,147.917938 265.467957,141.780365 
	C271.238129,137.933533 269.603943,130.828629 262.809753,127.199844 
	C264.576294,122.127312 266.342834,117.054779 268.093628,112.027473 
	C265.166534,109.952133 263.605713,110.086555 262.480896,113.606216 
	C260.934692,118.444420 258.775452,123.086716 256.178436,127.920029 
	C250.878281,131.558075 243.703171,133.653900 245.412643,142.683182 
	C245.773682,144.590103 243.942184,146.912140 242.417435,148.958725 
	C238.523376,145.384262 234.744659,141.673325 230.710770,138.264343 
	C222.835968,131.609451 214.768494,125.209457 204.451935,122.034874 
	C205.052261,114.623848 205.652588,107.212822 206.472229,99.049217 
	C204.976166,92.254227 203.480103,85.459229 202.239258,79.823448 
	C197.449127,79.253883 192.983109,79.275635 188.855103,78.105217 
	C182.313950,76.250587 176.641998,77.273582 172.317215,82.548790 
	C170.105545,85.246483 168.832687,88.489250 164.283203,88.512321 
	C163.018768,88.518738 160.589447,92.303734 160.752151,94.176430 
	C161.155899,98.823425 162.747070,103.367249 163.224365,108.360458 
	C162.840652,110.902611 162.456940,113.444763 161.330536,116.294670 
	C160.206635,116.531433 159.093414,116.874977 157.957199,116.988571 
	C145.636322,118.220329 134.565994,123.220306 124.271904,129.504181 
	C114.361580,135.553802 105.814583,143.418243 99.165543,153.237274 
	C90.744995,165.672409 84.694191,178.866364 83.258507,194.483917 
	C78.602760,194.724258 73.948914,195.099854 69.290718,195.165009 
	C65.049538,195.224350 63.507221,197.118195 63.543221,201.344498 
	C63.800049,231.497849 63.899643,261.652557 64.048386,291.806824 
	C64.084717,299.171539 64.392487,299.486450 72.479477,300.429718 
	C74.321510,300.271545 76.163551,300.113373 78.939850,299.880188 
	C86.598053,299.937347 94.256485,299.973328 101.914413,300.055664 
	C123.883995,300.291931 145.853378,300.546967 168.301529,301.349792 
	C173.534393,301.232788 178.767258,301.115784 184.934692,300.919220 
	C210.041672,301.052917 235.149078,301.140381 260.255219,301.367249 
	C264.292053,301.403717 266.584198,300.325409 266.459900,295.800903 
	C265.491821,260.567902 264.638123,225.331650 263.576447,190.101608 
	C263.520050,188.230438 261.904785,186.406235 260.821075,183.930954 
	C258.842438,180.313614 256.994232,176.615891 254.833038,173.111115 
	C253.661362,171.211014 251.956543,169.639679 250.559708,167.117645 
z"/>
<path fill="#F3441E" opacity="1.000000" stroke="none" 
	d="
M261.015228,184.560181 
	C261.904785,186.406235 263.520050,188.230438 263.576447,190.101608 
	C264.638123,225.331650 265.491821,260.567902 266.459900,295.800903 
	C266.584198,300.325409 264.292053,301.403717 260.255219,301.367249 
	C235.149078,301.140381 210.041672,301.052917 184.122269,300.746338 
	C178.147507,300.647186 172.985184,300.720886 167.822845,300.794617 
	C145.853378,300.546967 123.883995,300.291931 101.914413,300.055664 
	C94.256485,299.973328 86.598053,299.937347 78.182213,299.726959 
	C75.611069,299.678314 73.797562,299.782928 71.984055,299.887512 
	C64.392487,299.486450 64.084717,299.171539 64.048386,291.806824 
	C63.899643,261.652557 63.800049,231.497849 63.543221,201.344498 
	C63.507221,197.118195 65.049538,195.224350 69.290718,195.165009 
	C73.948914,195.099854 78.602760,194.724258 84.090096,194.387970 
	C97.202499,193.594666 109.483315,192.897308 121.770363,192.540817 
	C121.737946,194.346680 121.699295,195.811691 121.793266,197.607300 
	C125.498146,200.470490 125.239548,203.316528 123.134689,206.813217 
	C120.909416,210.509949 119.377129,214.617859 117.254227,218.383881 
	C115.149246,222.118103 116.018898,224.711884 119.138748,227.481216 
	C131.945343,238.848831 144.668274,250.315338 157.208267,261.975311 
	C160.188538,264.746399 162.085510,268.659393 164.959106,271.575897 
	C167.145218,273.794617 170.002869,276.591461 172.715179,276.767517 
	C177.010376,277.046326 181.433868,275.348541 185.803085,274.487091 
	C185.927856,273.953949 186.052643,273.420837 186.177414,272.887695 
	C182.779465,269.686005 179.381516,266.484314 175.840607,263.147949 
	C177.061035,261.768829 178.082611,260.614441 179.272385,259.269958 
	C175.878815,258.084961 172.578033,257.489105 169.919724,255.850800 
	C167.147141,254.142044 164.771820,251.618347 162.624817,249.107208 
	C159.829514,245.837860 157.357727,242.280838 154.878906,238.754684 
	C151.728882,234.273743 149.021576,229.445572 145.564545,225.224838 
	C140.273483,218.764999 140.314972,216.018326 147.149292,210.276642 
	C148.309067,209.966354 149.657364,209.624405 150.068192,208.809738 
	C152.009064,204.960846 154.013229,201.090714 155.387924,197.023041 
	C157.086411,191.997345 159.816269,189.408279 165.468628,189.817978 
	C169.569702,190.115234 173.741394,189.401657 177.883560,189.174561 
	C193.298019,188.329453 208.713272,187.499100 224.555481,186.751221 
	C232.238510,186.208588 239.494293,185.577957 247.239655,184.961761 
	C252.157898,184.837524 256.586578,184.698853 261.015228,184.560181 
M213.965881,217.704391 
	C214.010956,218.138229 214.056030,218.572052 213.942688,219.904144 
	C213.942688,221.956833 213.942688,224.009521 213.942688,226.365646 
	C217.812653,226.165588 220.901520,226.005905 224.561478,225.867737 
	C225.377121,225.843033 226.192764,225.818344 227.886993,225.955139 
	C237.552780,225.831619 238.279572,225.122116 235.982483,217.469635 
	C235.917526,217.310928 235.852554,217.152237 236.061417,216.342545 
	C236.050125,214.215652 236.038834,212.088745 236.092072,209.449631 
	C236.049759,209.282822 236.007431,209.116013 236.138977,208.112183 
	C236.281250,204.953110 237.095444,201.465118 231.896683,201.717697 
	C223.007446,202.149612 214.102539,202.303528 205.225555,202.894470 
	C203.964981,202.978394 201.892975,204.784042 201.800079,205.923523 
	C201.505692,209.535477 201.971039,213.209366 202.155457,217.131866 
	C204.654007,217.131866 206.796051,217.131866 208.980927,217.515564 
	C208.980927,217.515564 208.947189,217.900146 208.063171,217.966370 
	C206.161713,217.966370 204.260239,217.966370 202.458389,217.966370 
	C201.264099,227.279526 202.728561,228.340347 212.757477,225.982925 
	C212.757477,223.441940 212.757477,220.848358 213.026794,217.740662 
	C213.323929,217.510056 213.621048,217.279449 213.965881,217.704391 
M80.394493,223.769730 
	C82.635635,223.411774 84.876778,223.053818 87.539536,222.542221 
	C87.539536,222.542221 87.969810,222.669586 88.155670,223.087051 
	C88.370483,222.868668 88.585289,222.650284 89.155510,222.173813 
	C89.155510,222.173813 89.580673,222.063721 89.580673,222.063721 
	C89.580673,222.063721 90.018799,222.094284 90.080460,222.781052 
	C91.057220,223.439972 92.099335,224.745758 93.000305,224.654709 
	C99.748505,223.972900 101.593277,221.670883 101.224289,213.721146 
	C98.769432,208.370071 95.945450,206.979172 90.628006,208.344345 
	C89.239143,208.700912 87.551971,209.256882 86.363464,208.793564 
	C81.568764,206.924332 78.185936,208.546677 76.169090,212.822586 
	C74.022720,217.373123 75.907021,220.835541 80.394493,223.769730 
M233.475647,270.674957 
	C222.009491,270.705170 210.543304,270.761749 199.077179,270.752411 
	C194.612106,270.748749 192.915161,273.393616 192.809341,277.327209 
	C192.702240,281.309113 195.053131,283.831757 198.829529,283.885162 
	C213.448914,284.091949 228.074860,284.091125 242.694077,283.875824 
	C246.496445,283.819855 248.872314,281.119690 248.738922,277.271790 
	C248.608978,273.523621 246.342697,271.108948 242.432877,270.812103 
	C239.787857,270.611298 237.120087,270.709991 233.475647,270.674957 
M130.192566,269.304901 
	C121.700348,269.304901 113.208138,269.304901 104.715919,269.304901 
	C96.499794,269.304901 88.283661,269.304901 80.067535,269.304901 
	C80.087410,269.800781 80.107292,270.296631 80.127167,270.792511 
	C98.295815,270.792511 116.464455,270.792511 134.633102,270.792511 
	C134.657501,270.457611 134.681900,270.122681 134.706299,269.787781 
	C133.507263,269.626892 132.308243,269.466003 130.192566,269.304901 
M88.574478,277.925568 
	C94.023926,277.925568 99.473373,277.925568 104.922821,277.925568 
	C104.895927,277.419922 104.869026,276.914307 104.842125,276.408661 
	C96.424393,276.408661 88.006653,276.408661 79.588921,276.408661 
	C79.571884,276.914307 79.554848,277.419922 79.537811,277.925568 
	C82.226608,277.925568 84.915398,277.925568 88.574478,277.925568 
z"/>
<path fill="#F2F1F1" opacity="1.000000" stroke="none" 
	d="
M121.764130,192.199966 
	C109.483315,192.897308 97.202499,193.594666 84.460136,194.201233 
	C84.694191,178.866364 90.744995,165.672409 99.165543,153.237274 
	C105.814583,143.418243 114.361580,135.553802 124.271904,129.504181 
	C134.565994,123.220306 145.636322,118.220329 157.957199,116.988571 
	C159.093414,116.874977 160.206635,116.531433 161.941345,116.385193 
	C164.093140,118.268143 165.653244,120.044632 167.166962,121.859795 
	C167.909424,122.750114 169.106094,123.674149 169.174713,124.647919 
	C169.672379,131.710770 169.934601,138.790222 169.977127,145.974915 
	C165.112579,148.398392 160.715805,151.188156 155.936798,152.927994 
	C144.990860,156.913010 137.951675,164.478149 132.919128,174.771255 
	C129.909302,180.927231 125.528618,186.412964 121.764130,192.199966 
z"/>
<path fill="#A0626B" opacity="1.000000" stroke="none" 
	d="
M170.271301,145.864410 
	C169.934601,138.790222 169.672379,131.710770 169.174713,124.647919 
	C169.106094,123.674149 167.909424,122.750114 167.166962,121.859795 
	C165.653244,120.044632 164.093140,118.268143 162.312683,116.231323 
	C162.456940,113.444763 162.840652,110.902611 163.837036,108.350998 
	C165.377670,110.054214 166.305649,111.766884 167.498032,113.967567 
	C171.330765,105.951050 174.081970,100.196640 176.927841,94.244209 
	C183.360016,96.321815 189.950226,97.803383 196.173462,94.214989 
	C199.543152,92.271965 201.399261,93.568329 203.325760,95.946228 
	C204.341019,97.199379 205.279678,98.514603 206.252914,99.801796 
	C205.652588,107.212822 205.052261,114.623848 204.250748,122.767708 
	C202.214539,128.295258 201.545441,134.018539 194.499527,135.004120 
	C191.245544,134.511810 188.395386,134.000244 184.842255,133.362488 
	C185.783997,136.800156 186.054153,140.068512 187.537125,142.636475 
	C189.502045,146.038940 192.414978,148.893936 194.965607,152.363983 
	C193.566971,157.767670 190.151642,159.910843 185.009140,158.729614 
	C177.844376,157.083878 173.099838,152.540848 170.271301,145.864410 
z"/>
<path fill="#F1F1F1" opacity="1.000000" stroke="none" 
	d="
M194.903351,134.984879 
	C201.545441,134.018539 202.214539,128.295258 204.194550,123.204330 
	C214.768494,125.209457 222.835968,131.609451 230.710770,138.264343 
	C234.744659,141.673325 238.523376,145.384262 242.717499,149.359604 
	C237.664322,160.918716 232.348633,172.095367 226.901718,183.207703 
	C226.334915,184.364029 224.989639,185.138779 223.877930,185.747482 
	C222.152527,181.580597 220.657150,177.709763 218.928070,173.946289 
	C217.206970,170.200165 216.068253,165.667984 213.223404,163.067703 
	C207.782883,158.094910 201.312958,154.248383 195.163452,149.483261 
	C195.005554,144.349686 194.954453,139.667282 194.903351,134.984879 
z"/>
<path fill="#A2656D" opacity="1.000000" stroke="none" 
	d="
M224.005554,186.090546 
	C224.989639,185.138779 226.334915,184.364029 226.901718,183.207703 
	C232.348633,172.095367 237.664322,160.918716 243.069244,149.401703 
	C243.942184,146.912140 245.773682,144.590103 245.412643,142.683182 
	C243.703171,133.653900 250.878281,131.558075 256.614868,128.276123 
	C256.283295,132.153732 255.515335,135.675262 254.747375,139.196777 
	C255.392746,139.403137 256.038116,139.609482 256.683502,139.815826 
	C257.427399,138.025940 258.055145,136.175812 258.944122,134.461136 
	C260.097382,132.236694 261.458649,130.120087 262.730408,127.957062 
	C269.603943,130.828629 271.238129,137.933533 265.467957,141.780365 
	C256.261780,147.917938 253.048660,157.220215 250.307465,167.786621 
	C248.953506,173.952835 247.851791,179.450073 246.750061,184.947327 
	C239.494293,185.577957 232.238510,186.208588 224.510773,186.611328 
	C224.038834,186.383423 224.005539,186.090546 224.005554,186.090546 
z"/>
<path fill="#343244" opacity="1.000000" stroke="none" 
	d="
M206.362579,99.425507 
	C205.279678,98.514603 204.341019,97.199379 203.325760,95.946228 
	C201.399261,93.568329 199.543152,92.271965 196.173462,94.214989 
	C189.950226,97.803383 183.360016,96.321815 176.927841,94.244209 
	C174.081970,100.196640 171.330765,105.951050 167.498032,113.967567 
	C166.305649,111.766884 165.377670,110.054214 164.155487,108.147034 
	C162.747070,103.367249 161.155899,98.823425 160.752151,94.176430 
	C160.589447,92.303734 163.018768,88.518738 164.283203,88.512321 
	C168.832687,88.489250 170.105545,85.246483 172.317215,82.548790 
	C176.641998,77.273582 182.313950,76.250587 188.855103,78.105217 
	C192.983109,79.275635 197.449127,79.253883 202.239258,79.823448 
	C203.480103,85.459229 204.976166,92.254227 206.362579,99.425507 
z"/>
<path fill="#F56444" opacity="1.000000" stroke="none" 
	d="
M257.922363,96.045975 
	C252.965317,96.045975 248.008255,96.045975 242.677795,96.045975 
	C242.677795,85.102463 242.677795,74.870056 242.677795,64.254051 
	C256.940247,64.254051 271.159637,64.254051 285.770477,64.254051 
	C285.770477,74.328018 285.770477,84.549431 285.770477,94.749878 
	C281.072144,95.659348 276.329773,96.577339 271.025024,97.584396 
	C270.251923,97.348640 270.041199,97.023827 270.000580,96.350204 
	C271.659576,95.287216 273.100037,94.120651 274.647675,93.954842 
	C277.690826,93.628807 280.793579,93.858879 283.751587,93.858879 
	C283.751587,84.116020 283.751587,75.201866 283.751587,65.846176 
	C271.421265,65.846176 259.459381,65.888626 247.498154,65.815987 
	C244.550812,65.798088 244.407150,67.550095 244.421478,69.734299 
	C244.462967,76.064453 244.629379,82.403145 244.364532,88.722466 
	C244.204010,92.552673 245.636597,93.534233 249.284363,93.446228 
	C252.559067,93.367226 255.857376,94.266319 259.007385,95.009369 
	C258.553772,95.538528 258.238068,95.792259 257.922363,96.045975 
z"/>
<path fill="#3E3C4C" opacity="1.000000" stroke="none" 
	d="
M262.770081,127.578453 
	C261.458649,130.120087 260.097382,132.236694 258.944122,134.461136 
	C258.055145,136.175812 257.427399,138.025940 256.683502,139.815826 
	C256.038116,139.609482 255.392746,139.403137 254.747375,139.196777 
	C255.515335,135.675262 256.283295,132.153732 256.965088,128.222580 
	C258.775452,123.086716 260.934692,118.444420 262.480896,113.606216 
	C263.605713,110.086555 265.166534,109.952133 268.093628,112.027473 
	C266.342834,117.054779 264.576294,122.127312 262.770081,127.578453 
z"/>
<path fill="#F1EAE9" opacity="1.000000" stroke="none" 
	d="
M247.239655,184.961761 
	C247.851791,179.450073 248.953506,173.952835 250.273727,168.187820 
	C251.956543,169.639679 253.661362,171.211014 254.833038,173.111115 
	C256.994232,176.615891 258.842438,180.313614 260.918152,184.245575 
	C256.586578,184.698853 252.157898,184.837524 247.239655,184.961761 
z"/>
<path fill="#F67356" opacity="1.000000" stroke="none" 
	d="
M269.830444,96.699005 
	C270.041199,97.023827 270.251923,97.348640 270.712494,97.825546 
	C269.415558,100.013802 267.868774,102.049973 265.776550,104.804100 
	C262.998657,101.793129 260.619659,99.214508 258.081482,96.340935 
	C258.238068,95.792259 258.553772,95.538528 259.291412,95.204300 
	C261.441589,97.256927 263.169861,99.390060 265.154846,101.840088 
	C267.413452,99.356613 268.621948,98.027802 269.830444,96.699005 
z"/>
<path fill="#FBC0B3" opacity="1.000000" stroke="none" 
	d="
M168.062195,301.072205 
	C172.985184,300.720886 178.147507,300.647186 183.654984,300.786102 
	C178.767258,301.115784 173.534393,301.232788 168.062195,301.072205 
z"/>
<path fill="#FBC0B3" opacity="1.000000" stroke="none" 
	d="
M72.231766,300.158630 
	C73.797562,299.782928 75.611069,299.678314 77.715080,299.764465 
	C76.163551,300.113373 74.321510,300.271545 72.231766,300.158630 
z"/>
<path fill="#CFCBDE" opacity="1.000000" stroke="none" 
	d="
M223.877930,185.747467 
	C224.005539,186.090546 224.038834,186.383423 224.083527,186.523315 
	C208.713272,187.499100 193.298019,188.329453 177.883560,189.174561 
	C173.741394,189.401657 169.569702,190.115234 165.468628,189.817978 
	C159.816269,189.408279 157.086411,191.997345 155.387924,197.023041 
	C154.013229,201.090714 152.009064,204.960846 150.068192,208.809738 
	C149.657364,209.624405 148.309067,209.966354 147.050354,209.955872 
	C139.628876,202.722366 131.615631,197.991272 121.660645,197.276703 
	C121.699295,195.811691 121.737946,194.346680 121.770363,192.540817 
	C125.528618,186.412964 129.909302,180.927231 132.919128,174.771255 
	C137.951675,164.478149 144.990860,156.913010 155.936798,152.927994 
	C160.715805,151.188156 165.112579,148.398392 169.977127,145.974915 
	C173.099838,152.540848 177.844376,157.083878 185.009140,158.729614 
	C190.151642,159.910843 193.566971,157.767670 195.030731,152.022964 
	C195.123947,150.846237 195.197098,150.390335 195.270264,149.934433 
	C201.312958,154.248383 207.782883,158.094910 213.223404,163.067703 
	C216.068253,165.667984 217.206970,170.200165 218.928070,173.946289 
	C220.657150,177.709763 222.152527,181.580597 223.877930,185.747467 
z"/>
<path fill="#A26169" opacity="1.000000" stroke="none" 
	d="
M121.793266,197.607300 
	C131.615631,197.991272 139.628876,202.722366 146.806946,209.706406 
	C140.314972,216.018326 140.273483,218.764999 145.564545,225.224838 
	C149.021576,229.445572 151.728882,234.273743 154.878906,238.754684 
	C157.357727,242.280838 159.829514,245.837860 162.624817,249.107208 
	C164.771820,251.618347 167.147141,254.142044 169.919724,255.850800 
	C172.578033,257.489105 175.878815,258.084961 179.272385,259.269958 
	C178.082611,260.614441 177.061035,261.768829 175.840607,263.147949 
	C179.381516,266.484314 182.779465,269.686005 186.177414,272.887695 
	C186.052643,273.420837 185.927856,273.953949 185.803085,274.487091 
	C181.433868,275.348541 177.010376,277.046326 172.715179,276.767517 
	C170.002869,276.591461 167.145218,273.794617 164.959106,271.575897 
	C162.085510,268.659393 160.188538,264.746399 157.208267,261.975311 
	C144.668274,250.315338 131.945343,238.848831 119.138748,227.481216 
	C116.018898,224.711884 115.149246,222.118103 117.254227,218.383881 
	C119.377129,214.617859 120.909416,210.509949 123.134689,206.813217 
	C125.239548,203.316528 125.498146,200.470490 121.793266,197.607300 
z"/>
<path fill="#FFF6F4" opacity="1.000000" stroke="none" 
	d="
M208.938095,217.131866 
	C206.796051,217.131866 204.654007,217.131866 202.155457,217.131866 
	C201.971039,213.209366 201.505692,209.535477 201.800079,205.923523 
	C201.892975,204.784042 203.964981,202.978394 205.225555,202.894470 
	C214.102539,202.303528 223.007446,202.149612 231.896683,201.717697 
	C237.095444,201.465118 236.281250,204.953110 235.586639,208.500214 
	C226.982086,208.888260 218.929855,208.888260 210.789307,208.888260 
	C210.981537,212.058304 215.044098,215.847076 208.938095,217.131866 
z"/>
<path fill="#FDD7CF" opacity="1.000000" stroke="none" 
	d="
M233.969070,270.674866 
	C237.120087,270.709991 239.787857,270.611298 242.432877,270.812103 
	C246.342697,271.108948 248.608978,273.523621 248.738922,277.271790 
	C248.872314,281.119690 246.496445,283.819855 242.694077,283.875824 
	C228.074860,284.091125 213.448914,284.091949 198.829529,283.885162 
	C195.053131,283.831757 192.702240,281.309113 192.809341,277.327209 
	C192.915161,273.393616 194.612106,270.748749 199.077179,270.752411 
	C210.543304,270.761749 222.009491,270.705170 233.969070,270.674866 
M199.270157,281.683838 
	C213.056747,281.713837 226.843353,281.741089 240.629944,281.776001 
	C243.790253,281.783997 246.796143,280.809784 246.248001,277.242279 
	C245.997025,275.608948 243.060394,273.217010 241.292786,273.173828 
	C227.513474,272.837341 213.720062,272.875336 199.937500,273.138062 
	C198.271332,273.169861 195.374817,275.159271 195.306992,276.368073 
	C195.213974,278.026428 197.279587,279.805878 199.270157,281.683838 
z"/>
<path fill="#FFF3F0" opacity="1.000000" stroke="none" 
	d="
M236.027527,209.961853 
	C236.038834,212.088745 236.050125,214.215652 235.565186,216.666504 
	C233.103561,216.990448 231.138168,216.990448 229.172775,216.990448 
	C229.182541,217.319809 229.192307,217.649170 229.202072,217.978531 
	C231.487350,217.978531 233.772644,217.978531 236.057922,217.978531 
	C238.279572,225.122116 237.552780,225.831619 227.445068,225.423538 
	C227.000839,221.801468 227.202927,218.690765 226.900269,215.630005 
	C226.770782,214.320450 225.589783,213.114883 225.099579,211.538177 
	C228.884247,210.796814 232.455887,210.379333 236.027527,209.961853 
z"/>
<path fill="#FDD7CF" opacity="1.000000" stroke="none" 
	d="
M90.018799,222.094284 
	C90.018799,222.094284 89.580673,222.063721 89.580673,222.063721 
	C89.580673,222.063721 89.155510,222.173813 88.760078,222.326813 
	C88.364647,222.479797 87.969810,222.669586 87.969810,222.669586 
	C87.969810,222.669586 87.539536,222.542221 87.022079,222.338867 
	C86.284721,218.452621 86.064819,214.769730 85.765625,209.758774 
	C83.418030,210.616516 80.237518,210.819473 79.213760,212.410339 
	C78.089531,214.157349 78.831787,217.191177 79.000290,219.647888 
	C79.083420,220.859940 79.705688,222.035004 80.084000,223.226807 
	C75.907021,220.835541 74.022720,217.373123 76.169090,212.822586 
	C78.185936,208.546677 81.568764,206.924332 86.363464,208.793564 
	C87.551971,209.256882 89.239143,208.700912 90.628006,208.344345 
	C95.945450,206.979172 98.769432,208.370071 101.048279,213.913620 
	C97.767273,212.538086 95.589081,208.044891 91.456680,210.715912 
	C90.947983,214.741394 90.483391,218.417831 90.018799,222.094284 
z"/>
<path fill="#F45835" opacity="1.000000" stroke="none" 
	d="
M90.049629,222.437668 
	C90.483391,218.417831 90.947983,214.741394 91.456680,210.715912 
	C95.589081,208.044891 97.767273,212.538086 101.279747,214.246048 
	C101.593277,221.670883 99.748505,223.972900 93.000305,224.654709 
	C92.099335,224.745758 91.057220,223.439972 90.049629,222.437668 
z"/>
<path fill="#F34B25" opacity="1.000000" stroke="none" 
	d="
M80.239250,223.498260 
	C79.705688,222.035004 79.083420,220.859940 79.000290,219.647888 
	C78.831787,217.191177 78.089531,214.157349 79.213760,212.410339 
	C80.237518,210.819473 83.418030,210.616516 85.765625,209.758774 
	C86.064819,214.769730 86.284721,218.452621 86.811272,222.415680 
	C84.876778,223.053818 82.635635,223.411774 80.239250,223.498260 
z"/>
<path fill="#FEEEEA" opacity="1.000000" stroke="none" 
	d="
M212.757477,218.254761 
	C212.757477,220.848358 212.757477,223.441940 212.757477,225.982925 
	C202.728561,228.340347 201.264099,227.279526 202.458389,217.966370 
	C204.260239,217.966370 206.161713,217.966370 208.878723,218.023361 
	C210.715347,218.138489 211.736420,218.196640 212.757477,218.254761 
z"/>
<path fill="#FFFBFA" opacity="1.000000" stroke="none" 
	d="
M130.650894,269.305023 
	C132.308243,269.466003 133.507263,269.626892 134.706299,269.787781 
	C134.681900,270.122681 134.657501,270.457611 134.633102,270.792511 
	C116.464455,270.792511 98.295815,270.792511 80.127167,270.792511 
	C80.107292,270.296631 80.087410,269.800781 80.067535,269.304901 
	C88.283661,269.304901 96.499794,269.304901 104.715919,269.304901 
	C113.208138,269.304901 121.700348,269.304901 130.650894,269.305023 
z"/>
<path fill="#FFF6F4" opacity="1.000000" stroke="none" 
	d="
M223.990387,225.846237 
	C220.901520,226.005905 217.812653,226.165588 213.942688,226.365646 
	C213.942688,224.009521 213.942688,221.956833 214.471710,219.451782 
	C224.774261,219.138138 223.923309,217.659348 223.990387,225.846237 
z"/>
<path fill="#FEEEEA" opacity="1.000000" stroke="none" 
	d="
M224.275940,225.856995 
	C223.923309,217.659348 224.774261,219.138138 214.550934,219.002655 
	C214.056030,218.572052 214.010956,218.138229 214.057098,217.116669 
	C214.186630,216.343369 214.224960,216.157761 214.659058,215.975784 
	C217.703308,216.319809 220.351761,216.660217 223.299194,216.998047 
	C224.062439,216.328979 224.526733,215.662460 224.994141,214.604645 
	C224.977158,213.429214 224.957047,212.645111 224.927322,211.887878 
	C224.917694,211.914780 224.886566,211.862061 224.886566,211.862061 
	C225.589783,213.114883 226.770782,214.320450 226.900269,215.630005 
	C227.202927,218.690765 227.000839,221.801468 227.005783,225.342789 
	C226.192764,225.818344 225.377121,225.843033 224.275940,225.856995 
z"/>
<path fill="#FB7E62" opacity="1.000000" stroke="none" 
	d="
M214.263290,215.972153 
	C214.224960,216.157761 214.186630,216.343369 214.033234,216.788910 
	C213.621048,217.279449 213.323929,217.510056 212.892136,217.997711 
	C211.736420,218.196640 210.715347,218.138489 209.320740,217.990250 
	C208.947189,217.900146 208.980927,217.515564 208.959503,217.323715 
	C215.044098,215.847076 210.981537,212.058304 210.789307,208.888260 
	C218.929855,208.888260 226.982086,208.888260 235.499710,208.918732 
	C236.007431,209.116013 236.049759,209.282822 236.059814,209.705750 
	C232.455887,210.379333 228.884247,210.796814 225.099579,211.538177 
	C224.886566,211.862061 224.917694,211.914780 224.543991,211.755981 
	C220.869293,211.358505 217.568283,211.119812 213.924011,210.856308 
	C214.071838,213.085403 214.167572,214.528778 214.263290,215.972153 
z"/>
<path fill="#FEEEEA" opacity="1.000000" stroke="none" 
	d="
M88.089333,277.925568 
	C84.915398,277.925568 82.226608,277.925568 79.537811,277.925568 
	C79.554848,277.419922 79.571884,276.914307 79.588921,276.408661 
	C88.006653,276.408661 96.424393,276.408661 104.842125,276.408661 
	C104.869026,276.914307 104.895927,277.419922 104.922821,277.925568 
	C99.473373,277.925568 94.023926,277.925568 88.089333,277.925568 
z"/>
<path fill="#FEEEEA" opacity="1.000000" stroke="none" 
	d="
M236.020203,217.724091 
	C233.772644,217.978531 231.487350,217.978531 229.202072,217.978531 
	C229.192307,217.649170 229.182541,217.319809 229.172775,216.990448 
	C231.138168,216.990448 233.103561,216.990448 235.428284,216.991989 
	C235.852554,217.152237 235.917526,217.310928 236.020203,217.724091 
z"/>
<path fill="#F34B25" opacity="1.000000" stroke="none" 
	d="
M88.062744,222.878326 
	C87.969810,222.669586 88.364647,222.479797 88.582367,222.455841 
	C88.585289,222.650284 88.370483,222.868668 88.062744,222.878326 
z"/>
<path fill="#87545D" opacity="1.000000" stroke="none" 
	d="
M195.163452,149.483261 
	C195.197098,150.390335 195.123947,150.846237 194.985657,151.643158 
	C192.414978,148.893936 189.502045,146.038940 187.537125,142.636475 
	C186.054153,140.068512 185.783997,136.800156 184.842255,133.362488 
	C188.395386,134.000244 191.245544,134.511810 194.499512,135.004120 
	C194.954453,139.667282 195.005554,144.349686 195.163452,149.483261 
z"/>
<path fill="#FFF3F0" opacity="1.000000" stroke="none" 
	d="
M270.000549,96.350189 
	C268.621948,98.027802 267.413452,99.356613 265.154846,101.840088 
	C263.169861,99.390060 261.441589,97.256927 259.429321,94.928864 
	C255.857376,94.266319 252.559067,93.367226 249.284363,93.446228 
	C245.636597,93.534233 244.204010,92.552673 244.364532,88.722466 
	C244.629379,82.403145 244.462967,76.064453 244.421478,69.734299 
	C244.407150,67.550095 244.550812,65.798088 247.498154,65.815987 
	C259.459381,65.888626 271.421265,65.846176 283.751587,65.846176 
	C283.751587,75.201866 283.751587,84.116020 283.751587,93.858879 
	C280.793579,93.858879 277.690826,93.628807 274.647675,93.954842 
	C273.100037,94.120651 271.659576,95.287216 270.000549,96.350189 
M262.502411,86.032143 
	C266.491058,82.072601 270.479736,78.113052 274.468384,74.153511 
	C274.047607,73.727798 273.626831,73.302094 273.206055,72.876381 
	C269.142670,76.715401 265.079285,80.554420 261.100494,84.313530 
	C258.976898,82.589058 257.341492,81.261017 255.706085,79.932968 
	C255.311523,80.491333 254.916962,81.049698 254.522415,81.608063 
	C257.006561,83.239845 259.490723,84.871635 262.502411,86.032143 
z"/>
<path fill="#F34B25" opacity="1.000000" stroke="none" 
	d="
M198.845154,281.608643 
	C197.279587,279.805878 195.213974,278.026428 195.306992,276.368073 
	C195.374817,275.159271 198.271332,273.169861 199.937500,273.138062 
	C213.720062,272.875336 227.513474,272.837341 241.292786,273.173828 
	C243.060394,273.217010 245.997025,275.608948 246.248001,277.242279 
	C246.796143,280.809784 243.790253,281.783997 240.629944,281.776001 
	C226.843353,281.741089 213.056747,281.713837 198.845154,281.608643 
z"/>
<path fill="#FFFBFA" opacity="1.000000" stroke="none" 
	d="
M214.659058,215.975784 
	C214.167572,214.528778 214.071838,213.085403 213.924011,210.856308 
	C217.568283,211.119812 220.869293,211.358505 224.553619,211.729095 
	C224.957047,212.645111 224.977158,213.429214 224.676422,214.650787 
	C223.903778,215.725693 223.452011,216.363144 223.000229,217.000610 
	C220.351761,216.660217 217.703308,216.319809 214.659058,215.975784 
z"/>
<path fill="#FFF6F4" opacity="1.000000" stroke="none" 
	d="
M223.299194,216.998047 
	C223.452011,216.363144 223.903778,215.725693 224.673294,215.042084 
	C224.526733,215.662460 224.062439,216.328979 223.299194,216.998047 
z"/>
<path fill="#F67356" opacity="1.000000" stroke="none" 
	d="
M262.238647,86.267784 
	C259.490723,84.871635 257.006561,83.239845 254.522415,81.608063 
	C254.916962,81.049698 255.311523,80.491333 255.706085,79.932968 
	C257.341492,81.261017 258.976898,82.589058 261.100494,84.313530 
	C265.079285,80.554420 269.142670,76.715401 273.206055,72.876381 
	C273.626831,73.302094 274.047607,73.727798 274.468384,74.153511 
	C270.479736,78.113052 266.491058,82.072601 262.238647,86.267784 
z"/>
</svg>