<svg version="1.1" id="Layer_1" xmlns="http://www.w3.org/2000/svg" xmlns:xlink="http://www.w3.org/1999/xlink" x="0px" y="0px"
	 width="100%" viewBox="0 0 343 344" enable-background="new 0 0 343 344" xml:space="preserve">
<path fill="#FFF6F4" opacity="1.000000" stroke="none" 
	d="
M227.000000,345.000000 
	C151.333344,345.000000 76.166695,345.000000 1.000030,345.000000 
	C1.000020,230.333374 1.000020,115.666733 1.000010,1.000077 
	C115.333282,1.000051 229.666565,1.000051 343.999878,1.000026 
	C343.999939,115.666595 343.999939,230.333191 343.999969,344.999878 
	C305.166656,345.000000 266.333344,345.000000 227.000000,345.000000 
M283.685608,271.553345 
	C284.377533,271.541473 285.069489,271.529602 286.053040,272.075348 
	C286.702515,271.766510 287.352020,271.457642 288.537598,270.831787 
	C289.689941,270.490417 290.842255,270.149048 292.550018,269.739105 
	C292.398743,269.065460 292.247467,268.391846 291.610870,267.261200 
	C290.736603,267.188690 289.862366,267.116211 288.684479,266.741272 
	C288.393372,266.669556 288.159363,266.512634 287.649628,265.610992 
	C287.089325,264.794556 286.529022,263.978119 286.864929,263.132507 
	C294.106140,263.132507 301.347351,263.132507 310.073822,263.132507 
	C299.717010,259.890717 290.361542,260.241119 280.879578,259.220032 
	C280.888153,258.401398 280.567657,257.100250 280.954529,256.836456 
	C286.869781,252.802948 287.171539,247.108902 286.026031,240.851089 
	C285.489502,237.920059 285.243286,234.935852 285.119659,231.465897 
	C285.377594,230.973938 285.635529,230.481979 286.348907,229.464966 
	C286.120178,228.009827 285.891449,226.554688 285.221313,224.597626 
	C284.825836,223.704056 284.430389,222.810486 283.841217,221.459290 
	C283.415741,221.234329 282.990234,221.009369 282.191956,220.302170 
	C281.450287,220.121765 280.708618,219.941360 279.356140,219.433365 
	C278.914978,219.526840 278.473846,219.620316 277.440125,219.522629 
	C276.725922,219.906754 276.011688,220.290878 274.613708,220.684174 
	C273.414612,222.054932 272.215485,223.425690 270.532898,224.573669 
	C270.386902,224.472031 270.240906,224.370377 269.659515,223.631256 
	C267.542114,223.197021 265.424744,222.762802 263.307343,222.328583 
	C263.275665,222.818710 263.244019,223.308838 263.212341,223.798965 
	C264.796234,224.532135 266.380127,225.265320 268.387787,226.417755 
	C265.255951,227.348892 262.124115,228.280029 258.994629,228.281799 
	C258.942474,226.734772 258.890350,225.187729 258.815918,223.317017 
	C258.815918,223.317017 258.907623,223.005798 259.639893,222.874619 
	C260.425781,220.583084 261.211670,218.291534 261.999298,215.333344 
	C261.999939,214.888901 262.000580,214.444443 262.484863,213.659195 
	C262.655762,213.106125 262.826660,212.553055 263.001953,211.154327 
	C264.739685,200.688599 265.554626,190.305389 264.166748,179.602753 
	C261.217499,156.858658 251.515717,137.482742 235.645874,121.410225 
	C225.597641,111.233688 213.592606,103.373215 199.673965,99.101494 
	C195.309021,97.761871 190.751892,97.048439 186.073898,95.325768 
	C185.416534,86.275978 183.246399,83.517303 174.197525,80.283730 
	C173.418655,80.066566 172.639786,79.849403 171.764832,78.703827 
	C171.821960,77.463142 171.879089,76.222450 172.254440,74.436150 
	C172.352386,73.611961 172.450333,72.787766 172.860596,71.167191 
	C173.535202,66.449371 174.209808,61.731560 174.725937,56.342121 
	C173.139374,56.032051 171.552826,55.721981 169.299393,55.180260 
	C168.683533,56.167507 168.067657,57.154758 167.036469,58.606030 
	C166.992691,59.418156 166.948914,60.230286 166.520386,61.779861 
	C166.434204,62.879707 166.348038,63.979553 165.847214,65.563042 
	C165.784409,66.390427 165.721603,67.217804 165.322189,68.747711 
	C165.289017,69.520546 165.255844,70.293388 164.845184,71.574181 
	C164.751572,72.396889 164.657944,73.219589 164.260422,74.795319 
	C164.198853,75.604088 164.137283,76.412849 163.299988,77.546028 
	C161.228546,77.780380 159.157089,78.014740 156.380630,78.220192 
	C152.029648,79.411102 149.825668,82.491890 148.956451,86.713722 
	C148.387772,89.475868 147.877106,92.249947 146.478302,95.013634 
	C145.813766,95.039589 145.119736,94.948936 144.488953,95.108391 
	C123.711105,100.360718 105.869186,110.523392 91.700462,126.786865 
	C82.086746,137.821899 74.795631,150.209503 71.188034,164.437592 
	C69.450043,171.292099 68.187584,178.399796 67.868767,185.445282 
	C67.529922,192.933197 68.563156,200.483215 68.285645,208.010727 
	C67.811348,208.023758 67.337051,208.036789 66.368645,207.870651 
	C65.949364,207.570145 65.530090,207.269623 65.026276,206.204239 
	C63.003849,201.821625 59.415707,202.112274 55.836548,203.463211 
	C51.862049,204.963364 50.592342,208.279129 51.218761,212.299500 
	C51.466354,213.888535 52.133629,215.412201 52.379879,217.645859 
	C51.991039,218.436050 51.602200,219.226242 51.063282,220.824799 
	C51.274487,223.058670 52.157040,225.493454 51.560863,227.485718 
	C50.208557,232.004807 51.427521,235.240082 55.019119,238.649109 
	C55.019119,240.044632 55.019119,241.440170 55.019119,242.061554 
	C50.251514,242.360886 45.823383,242.270752 41.531628,242.992081 
	C34.571163,244.161911 27.632978,245.619217 20.831177,247.486267 
	C18.719063,248.066055 16.893618,250.211105 15.385017,252.014404 
	C15.094897,252.361206 16.664125,254.720718 17.772585,255.704330 
	C23.843687,261.091705 31.149639,262.525055 39.947624,261.954102 
	C52.957539,261.950195 65.967453,261.946259 79.464760,262.501953 
	C83.345139,261.985291 87.255325,261.614563 91.081573,260.832977 
	C91.878059,260.670258 92.363914,258.986938 93.593849,258.305450 
	C99.393440,263.204254 105.193031,268.103027 111.614342,273.568359 
	C111.900246,274.303741 112.443314,275.042908 112.432671,275.773956 
	C112.313065,283.989960 114.306557,285.728638 122.573853,283.961487 
	C122.912048,283.682922 123.250244,283.404327 123.588432,283.125763 
	C123.190697,282.741638 122.792969,282.357544 122.073563,281.373779 
	C121.936577,280.941956 121.799591,280.510132 122.360222,280.000214 
	C122.918251,279.630005 123.476280,279.259796 124.698586,278.863037 
	C125.122612,278.983063 125.546631,279.103058 125.990509,279.891113 
	C127.164185,281.273590 128.337875,282.656067 129.680084,284.872223 
	C130.205566,287.904724 130.731049,290.937195 131.529419,294.566681 
	C134.380157,296.441772 137.026474,299.421783 140.118301,299.993774 
	C151.340454,302.070007 162.711929,303.339203 174.957184,304.999634 
	C182.970093,304.968689 190.983002,304.937744 199.910034,305.009613 
	C210.195419,303.638245 220.480804,302.266876 231.560760,300.946808 
	C234.523849,299.642639 237.895813,298.853088 240.347412,296.905151 
	C243.473846,294.421082 242.717819,289.504303 239.174408,288.306915 
	C231.986908,285.878052 224.628815,283.954071 217.438019,281.070312 
	C217.892990,279.134888 218.347946,277.199432 218.950928,274.636566 
	C218.974472,274.422974 218.998001,274.209351 219.754776,273.988831 
	C221.073792,273.375885 222.533157,272.957031 223.690292,272.120209 
	C236.353531,262.962555 246.341934,251.444626 253.625687,237.626511 
	C254.436066,236.089111 254.536255,234.177368 255.717957,232.252716 
	C260.711548,231.005066 265.705170,229.757416 270.875458,229.289169 
	C271.307251,230.541687 271.739014,231.794220 271.890991,233.629745 
	C271.623322,234.428101 271.355682,235.226440 270.814758,236.812302 
	C270.774536,240.331360 270.312561,243.915146 270.839325,247.347168 
	C271.202972,249.716339 272.993164,251.848633 274.035065,254.137222 
	C274.888733,256.012329 275.578918,257.961853 275.505676,259.977509 
	C266.348236,260.312775 257.066101,259.842041 247.825363,263.213928 
	C256.367737,263.213928 264.196533,263.213928 271.808594,263.952362 
	C271.212097,264.728699 270.615631,265.505035 269.711243,266.578644 
	C269.420502,266.647858 269.188690,266.804382 268.358154,266.956909 
	C267.540222,267.210297 266.722260,267.463715 265.339630,267.853729 
	C265.562012,268.503937 265.784393,269.154175 266.497894,270.144745 
	C267.664856,270.477142 268.831848,270.809540 270.107452,271.756531 
	C270.821716,271.672638 271.536011,271.588745 272.936829,271.395905 
	C273.610840,271.536224 274.284882,271.676575 275.464325,272.441895 
	C277.989532,272.233948 280.514709,272.025970 283.685608,271.553345 
M318.604889,271.770966 
	C316.172028,272.564728 313.739136,273.358490 310.413239,274.062408 
	C306.808105,274.473022 303.160492,274.676147 299.619659,275.400879 
	C298.285614,275.673920 297.198853,277.155121 295.125610,278.172180 
	C283.776642,277.820648 272.427704,277.469116 260.613098,276.485840 
	C255.970673,275.698853 251.328262,274.911865 245.964035,274.118591 
	C243.612793,273.169312 241.261551,272.220062 238.752884,270.714722 
	C238.465012,270.469025 238.177139,270.223328 237.883286,269.239899 
	C240.049255,267.743866 242.215240,266.247833 244.381210,264.751770 
	C242.673080,264.413177 241.015656,264.564667 239.820801,265.387695 
	C238.149841,266.538696 235.416077,268.521088 235.658997,269.555511 
	C236.093216,271.404449 238.141815,273.373505 240.006744,274.267090 
	C242.631271,275.524628 245.703674,275.847412 249.160126,277.229553 
	C253.255463,277.766418 257.350800,278.303284 262.266998,278.790497 
	C273.686920,278.808258 285.106812,278.826050 297.496185,278.939850 
	C301.981537,278.040405 306.466919,277.140961 311.750031,276.117188 
	C314.677063,275.098358 317.805176,274.441345 320.474121,272.958099 
	C323.100464,271.498474 323.503052,268.797211 320.864532,266.932770 
	C318.762543,265.447449 316.102814,264.751404 313.690674,263.704956 
	C313.618195,263.954651 313.545746,264.204315 313.473267,264.454010 
	C315.690155,266.294098 317.907013,268.134216 319.616150,270.261353 
	C319.441010,270.599457 319.265869,270.937531 318.604889,271.770966 
z"/>
<path fill="#F5F2F2" opacity="1.000000" stroke="none" 
	d="
M254.965805,232.439224 
	C254.536255,234.177368 254.436066,236.089111 253.625687,237.626511 
	C246.341934,251.444626 236.353531,262.962555 223.690292,272.120209 
	C222.533157,272.957031 221.073792,273.375885 219.348785,273.579468 
	C217.987854,262.784515 214.572739,253.245895 209.143204,244.373642 
	C207.881332,242.311646 206.882339,240.088806 205.834747,237.530182 
	C206.425339,231.620087 204.246414,227.746796 199.428207,224.876556 
	C196.410141,223.078674 193.941544,220.358398 191.187805,217.581482 
	C191.080566,182.998337 185.789169,149.368378 181.824554,115.250443 
	C183.347427,108.602798 184.815079,102.325592 186.282730,96.048386 
	C190.751892,97.048439 195.309021,97.761871 199.673965,99.101494 
	C213.592606,103.373215 225.597641,111.233688 235.645874,121.410225 
	C251.515717,137.482742 261.217499,156.858658 264.166748,179.602753 
	C265.554626,190.305389 264.739685,200.688599 262.709900,211.609650 
	C262.278992,212.709976 262.140106,213.354980 262.001221,214.000000 
	C262.000580,214.444443 261.999939,214.888901 261.644653,215.730347 
	C260.467133,217.871109 259.644318,219.614853 258.384399,221.293671 
	C249.353653,221.267853 240.759933,221.306961 231.996109,221.079071 
	C230.097870,220.939545 227.897629,220.448975 226.744888,221.329605 
	C224.668396,222.915939 219.855972,222.169403 221.298843,227.349060 
	C223.596771,228.750824 225.675140,230.621582 227.905212,230.824402 
	C236.899963,231.642456 245.941528,231.945801 254.965805,232.439224 
z"/>
<path fill="#F4F2F1" opacity="1.000000" stroke="none" 
	d="
M68.997253,208.006104 
	C68.563156,200.483215 67.529922,192.933197 67.868767,185.445282 
	C68.187584,178.399796 69.450043,171.292099 71.188034,164.437592 
	C74.795631,150.209503 82.086746,137.821899 91.700462,126.786865 
	C105.869186,110.523392 123.711105,100.360718 144.488953,95.108391 
	C145.119736,94.948936 145.813766,95.039589 147.000107,95.468903 
	C148.258545,103.790581 148.995178,111.656990 149.512680,119.940613 
	C145.360306,144.544250 141.427032,168.730682 137.165741,192.917374 
	C135.557709,192.620361 134.277740,192.323090 132.975677,191.647400 
	C131.284668,186.610092 130.315720,181.507874 127.731934,177.428452 
	C125.547401,173.979401 121.492134,171.715210 118.229279,168.582947 
	C122.291740,165.626282 126.871246,163.364868 126.563690,157.249268 
	C129.612549,156.862640 130.487274,155.419876 128.974945,153.131241 
	C126.309822,149.098022 117.944801,146.410187 113.547287,148.723511 
	C108.633171,151.308594 109.727562,156.166428 110.410873,160.587357 
	C110.536560,161.400528 110.866287,162.182144 110.994766,163.202011 
	C110.585831,163.810684 110.283958,164.195679 109.596069,164.675018 
	C108.810226,166.177597 108.410393,167.585831 107.653458,169.004684 
	C98.561195,173.153442 96.538910,178.566223 99.464508,188.946503 
	C101.189621,195.067383 102.667458,201.269958 103.940178,207.500427 
	C104.447456,209.983734 104.101692,212.641312 104.131638,215.605621 
	C105.515823,220.026123 107.530022,223.966522 108.162178,228.117416 
	C109.070015,234.078537 109.134407,240.189850 109.251640,246.243011 
	C109.352341,251.442245 108.722725,256.664856 108.983093,261.848663 
	C109.171043,265.590576 110.289291,269.285797 110.992615,273.001831 
	C105.193031,268.103027 99.393440,263.204254 93.037186,258.262146 
	C91.990273,258.478851 91.500015,258.738800 91.001236,258.626648 
	C89.327248,254.838745 87.661789,251.423019 86.400864,248.014160 
	C91.373833,248.313568 95.764656,251.266464 101.702660,249.258560 
	C99.262047,248.548172 98.018211,248.146103 96.753799,247.825089 
	C91.512703,246.494431 86.265381,245.188263 81.007095,243.503189 
	C79.246033,239.248154 77.137268,235.480408 75.827606,231.452820 
	C73.311478,223.715073 71.248306,215.830048 68.997253,208.006104 
M101.404610,256.122925 
	C102.119354,254.677582 102.834091,253.232224 103.548836,251.786865 
	C103.163216,251.686752 102.777603,251.586624 102.391983,251.486511 
	C100.045898,253.409973 97.699814,255.333450 95.353737,257.256927 
	C95.496552,257.604187 95.639374,257.951447 95.782196,258.298737 
	C97.479942,257.741547 99.177689,257.184357 101.404610,256.122925 
z"/>
<path fill="#423D4D" opacity="1.000000" stroke="none" 
	d="
M149.731812,119.523399 
	C148.995178,111.656990 148.258545,103.790581 147.431183,95.471428 
	C147.877106,92.249947 148.387772,89.475868 148.956451,86.713722 
	C149.825668,82.491890 152.029648,79.411102 157.016724,78.469269 
	C159.793793,78.219437 161.934753,77.720528 164.075714,77.221619 
	C164.137283,76.412849 164.198853,75.604088 164.682678,74.337952 
	C165.144180,72.942459 165.183426,72.004341 165.222672,71.066223 
	C165.255844,70.293388 165.289017,69.520546 165.748901,68.304596 
	C166.204346,66.934120 166.233109,66.006760 166.261871,65.079399 
	C166.348038,63.979553 166.434204,62.879707 166.937714,61.298504 
	C167.387299,59.925434 167.419540,59.033718 167.451782,58.142006 
	C168.067657,57.154758 168.683533,56.167507 169.741699,55.625595 
	C171.750809,56.385204 173.317612,56.699474 174.884415,57.013748 
	C174.209808,61.731560 173.535202,66.449371 172.418976,71.640839 
	C171.963654,73.070244 171.949936,74.026001 171.936203,74.981766 
	C171.879089,76.222450 171.821960,77.463142 171.971848,79.455475 
	C172.987152,80.386375 173.795425,80.565636 174.603714,80.744904 
	C183.246399,83.517303 185.416534,86.275978 186.178314,95.687073 
	C184.815079,102.325592 183.347427,108.602798 181.572632,115.525833 
	C178.604065,122.938019 175.826416,129.632080 169.555786,134.477127 
	C166.241959,134.609558 163.307037,134.654144 160.149536,134.445221 
	C156.528580,129.302277 153.130188,124.412834 149.731812,119.523399 
M179.999390,98.564316 
	C180.720993,94.378273 179.052216,91.327148 175.197266,89.847267 
	C171.702011,88.505478 168.040054,87.541336 164.388626,86.676575 
	C159.301117,85.471695 155.111404,88.515602 153.959229,93.696663 
	C151.737030,103.689415 153.311203,112.981300 158.377121,121.850639 
	C162.005936,128.203903 168.715958,129.090240 171.923065,122.599907 
	C175.516754,115.327232 177.381912,107.200424 179.999390,98.564316 
z"/>
<path fill="#46435A" opacity="1.000000" stroke="none" 
	d="
M111.303482,273.285095 
	C110.289291,269.285797 109.171043,265.590576 108.983093,261.848663 
	C108.722725,256.664856 109.352341,251.442245 109.251640,246.243011 
	C109.134407,240.189850 109.070015,234.078537 108.162178,228.117416 
	C107.530022,223.966522 105.515823,220.026123 104.541229,215.418762 
	C107.622025,214.844421 110.280594,214.842987 113.016174,215.226685 
	C117.011551,219.064743 123.804474,219.046402 127.667137,215.848190 
	C129.307999,216.641510 130.769547,217.348145 132.222076,218.485901 
	C130.873795,227.660477 129.534546,236.403946 128.070541,244.885010 
	C127.608398,244.451828 127.271019,244.281052 126.782272,243.775177 
	C124.991592,239.523849 123.352280,235.607605 121.712967,231.691360 
	C120.322296,235.206604 119.948883,238.500610 119.311356,241.742691 
	C116.756401,254.735626 117.156891,267.527832 121.662613,280.078308 
	C121.799591,280.510132 121.936577,280.941956 122.183861,282.014221 
	C122.199181,283.103027 122.104202,283.551422 122.009224,283.999786 
	C114.306557,285.728638 112.313065,283.989960 112.432671,275.773956 
	C112.443314,275.042908 111.900246,274.303741 111.303482,273.285095 
z"/>
<path fill="#454159" opacity="1.000000" stroke="none" 
	d="
M218.802917,275.264008 
	C218.347946,277.199432 217.892990,279.134888 217.161407,281.647034 
	C215.584946,283.149384 214.285095,284.075043 212.574173,284.903809 
	C209.765457,284.450775 208.334000,284.944366 207.845398,287.838318 
	C207.462891,290.103851 205.942154,292.177216 204.583618,294.463257 
	C201.863785,293.975586 199.487457,293.360687 196.980103,292.433105 
	C195.170135,291.294403 193.491180,290.468353 191.614441,289.307556 
	C190.651077,288.954895 189.885498,288.936951 188.976135,288.566071 
	C186.917694,287.909912 185.003052,287.606720 182.782944,287.211548 
	C182.273590,287.059113 182.069702,286.998688 181.856888,286.664795 
	C181.560699,285.960022 181.273438,285.528717 180.892883,284.722778 
	C180.871078,282.160217 180.942566,279.972321 181.334244,277.694458 
	C182.975098,277.011536 184.295776,276.418549 184.738617,276.219727 
	C183.747604,272.414825 182.576431,269.093811 182.347626,265.709106 
	C182.315170,265.228973 186.865631,264.439056 189.634323,263.905701 
	C192.672195,264.461548 195.370682,264.904175 198.424072,265.346008 
	C199.637207,266.378845 200.472641,267.432556 201.360352,268.440216 
	C202.164383,269.352875 202.872574,270.695190 203.887299,271.018463 
	C208.810364,272.586823 213.822403,273.875977 218.802917,275.264008 
z"/>
<path fill="#403C4F" opacity="1.000000" stroke="none" 
	d="
M52.609810,216.965622 
	C52.133629,215.412201 51.466354,213.888535 51.218761,212.299500 
	C50.592342,208.279129 51.862049,204.963364 55.836548,203.463211 
	C59.415707,202.112274 63.003849,201.821625 64.738968,206.634491 
	C63.967976,207.710037 63.484291,208.355331 62.659119,209.002258 
	C61.711494,209.331192 61.105366,209.658463 60.499237,209.985748 
	C60.793808,210.269150 61.088375,210.552567 61.382942,210.835968 
	C61.921799,210.223770 62.460659,209.611588 63.371315,209.003876 
	C64.734520,209.012329 65.725937,209.016281 66.787895,209.391846 
	C66.853783,211.022522 66.849121,212.281601 66.502686,213.656708 
	C66.334267,214.777145 66.507607,215.781540 66.684418,217.181946 
	C66.854454,222.254059 67.333069,226.950256 67.033775,231.596344 
	C66.914291,233.451141 65.172729,235.261292 63.989376,236.966736 
	C63.198154,238.107071 62.089317,239.027023 60.820030,240.113312 
	C60.720726,240.770401 60.924000,241.359756 61.153038,242.313965 
	C61.259457,243.155243 61.340111,243.631699 61.330513,244.422394 
	C61.185478,245.169662 61.130699,245.602692 61.048996,246.015747 
	C61.022076,245.995789 61.030052,246.062347 60.771488,246.084656 
	C60.680901,246.387817 60.848873,246.668701 61.107063,247.213562 
	C61.280186,247.644028 61.363098,247.810516 61.362572,248.316467 
	C62.187004,249.047440 63.094879,249.438950 64.409714,249.908691 
	C67.212784,250.258347 69.608879,250.529785 72.371117,250.963745 
	C72.253487,255.022034 69.128784,253.453323 66.767593,253.673462 
	C65.331772,253.798965 64.110214,254.158798 62.461628,254.601471 
	C59.732784,254.572205 57.430973,254.460129 55.020187,254.085968 
	C53.945370,253.855789 52.979527,253.887711 51.622284,253.943909 
	C49.520054,253.611313 47.809223,253.254395 46.098392,252.897491 
	C46.397846,252.196548 46.697300,251.495605 47.413803,250.839111 
	C50.690277,250.456924 53.549706,250.030289 57.629738,249.421524 
	C56.746391,245.480789 55.895061,241.682892 55.043732,237.884995 
	C51.427521,235.240082 50.208557,232.004807 51.560863,227.485718 
	C52.157040,225.493454 51.274487,223.058670 51.502415,220.419113 
	C53.468594,220.171509 54.995640,220.329590 56.522682,220.487671 
	C56.675678,220.144455 56.828674,219.801254 56.981670,219.458038 
	C55.524384,218.627228 54.067097,217.796417 52.609810,216.965622 
M63.569016,214.305557 
	C63.297676,214.022507 63.026340,213.739456 62.754993,213.456406 
	C62.637669,213.568970 62.412079,213.773178 62.418625,213.780899 
	C62.671207,214.079346 62.945023,214.359818 63.569016,214.305557 
z"/>
<path fill="#403C4F" opacity="1.000000" stroke="none" 
	d="
M282.564758,220.784393 
	C282.990234,221.009369 283.415741,221.234329 283.877136,222.028412 
	C282.628113,224.052170 281.343140,225.506805 280.058167,226.961441 
	C280.379730,227.376923 280.701324,227.792404 281.022888,228.207901 
	C282.569489,227.171783 284.116119,226.135666 285.662720,225.099548 
	C285.891449,226.554688 286.120178,228.009827 285.738464,229.716965 
	C283.911041,230.148560 282.694061,230.328171 281.477081,230.507767 
	C281.517914,230.890930 281.558746,231.274109 281.599579,231.657272 
	C282.688202,231.763443 283.776825,231.869598 284.865479,231.975769 
	C285.243286,234.935852 285.489502,237.920059 286.026031,240.851089 
	C287.171539,247.108902 286.869781,252.802948 280.954529,256.836456 
	C280.567657,257.100250 280.888153,258.401398 280.915405,259.979309 
	C281.013489,261.226471 281.075745,261.714355 281.014282,262.599274 
	C280.148499,267.601379 284.283508,265.359985 286.036560,266.866821 
	C287.083344,267.107117 288.035706,267.075378 288.988098,267.043701 
	C289.862366,267.116211 290.736603,267.188690 291.808960,268.011353 
	C292.002899,269.110229 291.998718,269.458954 291.994568,269.807678 
	C290.842255,270.149048 289.689941,270.490417 287.938263,270.893860 
	C286.882599,270.911713 286.426270,270.867523 285.702118,270.592712 
	C280.966949,270.512268 276.499603,270.662506 271.692688,270.875244 
	C270.901672,271.005798 270.450256,271.073853 269.998840,271.141907 
	C268.831848,270.809540 267.664856,270.477142 266.246246,269.451630 
	C265.964508,268.411377 265.934418,268.064240 265.904297,267.717102 
	C266.722260,267.463715 267.540222,267.210297 268.862915,267.232300 
	C270.264984,267.205322 271.162292,266.902954 272.425812,266.447906 
	C275.302673,266.099365 277.652161,265.743469 276.841003,261.825623 
	C276.685150,260.904663 276.513336,260.391510 276.341553,259.878387 
	C275.578918,257.961853 274.888733,256.012329 274.035065,254.137222 
	C272.993164,251.848633 271.202972,249.716339 270.839325,247.347168 
	C270.312561,243.915146 270.774536,240.331360 271.259888,236.560547 
	C273.265015,236.799728 274.825012,237.290665 276.384979,237.781616 
	C276.599548,237.346161 276.814087,236.910690 277.028656,236.475235 
	C275.409363,235.332413 273.790070,234.189575 272.170776,233.046753 
	C271.739014,231.794220 271.307251,230.541687 270.860718,228.608810 
	C270.902771,226.884445 270.959564,225.840454 271.016388,224.796448 
	C272.215485,223.425690 273.414612,222.054932 275.280396,220.766541 
	C276.642303,220.470520 277.337494,220.092163 278.032684,219.713791 
	C278.473846,219.620316 278.914978,219.526840 279.805542,219.871033 
	C281.024872,220.467285 281.794800,220.625839 282.564758,220.784393 
z"/>
<path fill="#CEC7D8" opacity="1.000000" stroke="none" 
	d="
M218.876923,274.950287 
	C213.822403,273.875977 208.810364,272.586823 203.887299,271.018463 
	C202.872574,270.695190 202.164383,269.352875 201.360352,268.440216 
	C200.472641,267.432556 199.637207,266.378845 198.398926,264.946228 
	C196.263458,262.911194 194.508041,261.275146 192.638763,259.502380 
	C192.318970,259.244171 192.129700,259.100739 191.955322,258.968445 
	C191.953522,259.001617 192.015457,259.025665 191.931824,258.610779 
	C192.178421,255.493851 192.508667,252.791794 193.219177,250.053101 
	C198.870529,251.151230 199.938950,255.710754 201.703140,260.137604 
	C203.549438,259.638184 206.702118,259.570679 207.076233,258.516815 
	C207.802643,256.470520 207.882263,253.015579 206.611969,251.657181 
	C202.553513,247.317245 201.781799,242.403824 202.515503,236.985962 
	C203.806412,237.335983 204.784393,237.637970 205.762375,237.939972 
	C206.882339,240.088806 207.881332,242.311646 209.143204,244.373642 
	C214.572739,253.245895 217.987854,262.784515 218.982147,273.582947 
	C218.998001,274.209351 218.974472,274.422974 218.876923,274.950287 
z"/>
<path fill="#FCF0EE" opacity="1.000000" stroke="none" 
	d="
M61.420765,244.108139 
	C61.340111,243.631699 61.259457,243.155243 61.355515,242.171143 
	C61.395687,241.124207 61.259148,240.584900 61.122612,240.045609 
	C62.089317,239.027023 63.198154,238.107071 63.989376,236.966736 
	C65.172729,235.261292 66.914291,233.451141 67.033775,231.596344 
	C67.333069,226.950256 66.854454,222.254059 66.772247,216.643097 
	C66.852547,214.985718 66.848503,214.263184 66.844452,213.540665 
	C66.849121,212.281601 66.853783,211.022522 66.869621,209.156036 
	C66.880798,208.548630 66.862755,208.049805 66.862755,208.049805 
	C67.337051,208.036789 67.811348,208.023758 68.641449,208.008423 
	C71.248306,215.830048 73.311478,223.715073 75.827606,231.452820 
	C77.137268,235.480408 79.246033,239.248154 80.662064,243.537903 
	C79.535439,244.294022 78.740601,244.645508 77.535812,245.058929 
	C72.089989,245.399490 67.054108,245.678116 62.008312,245.704926 
	C61.805851,245.004776 61.613308,244.556458 61.420765,244.108139 
z"/>
<path fill="#EDEBEC" opacity="1.000000" stroke="none" 
	d="
M122.011414,280.039246 
	C117.156891,267.527832 116.756401,254.735626 119.311356,241.742691 
	C119.948883,238.500610 120.322296,235.206604 121.712967,231.691360 
	C123.352280,235.607605 124.991592,239.523849 126.762352,244.163818 
	C125.609276,251.356964 122.293594,257.587372 124.503296,264.869781 
	C124.290077,269.804230 124.162201,274.346893 124.034317,278.889557 
	C123.476280,279.259796 122.918251,279.630005 122.011414,280.039246 
z"/>
<path fill="#FCF0EE" opacity="1.000000" stroke="none" 
	d="
M55.031425,238.267059 
	C55.895061,241.682892 56.746391,245.480789 57.629738,249.421524 
	C53.549706,250.030289 50.690277,250.456924 47.495819,250.488220 
	C49.545048,249.052979 51.929310,248.013092 54.316135,246.975952 
	C54.141918,246.735245 54.005444,246.336243 53.780670,246.277985 
	C53.151520,246.114944 52.450645,246.199783 51.839939,245.998810 
	C43.612965,243.291199 36.220287,247.036972 28.600613,248.983459 
	C25.368567,249.809097 22.160854,250.729996 18.155270,251.822144 
	C21.204327,255.259705 23.076641,257.472931 27.495255,257.289093 
	C32.286835,257.089752 37.155556,258.744629 41.655739,259.670563 
	C40.551609,260.482178 39.782383,261.214142 39.013161,261.946136 
	C31.149639,262.525055 23.843687,261.091705 17.772585,255.704330 
	C16.664125,254.720718 15.094897,252.361206 15.385017,252.014404 
	C16.893618,250.211105 18.719063,248.066055 20.831177,247.486267 
	C27.632978,245.619217 34.571163,244.161911 41.531628,242.992081 
	C45.823383,242.270752 50.251514,242.360886 55.019119,242.061554 
	C55.019119,241.440170 55.019119,240.044632 55.031425,238.267059 
z"/>
<path fill="#F7F2F1" opacity="1.000000" stroke="none" 
	d="
M221.149017,227.051331 
	C219.855972,222.169403 224.668396,222.915939 226.744888,221.329605 
	C227.897629,220.448975 230.097870,220.939545 232.022079,221.411713 
	C233.014847,222.407928 233.802338,223.128128 234.609604,223.151016 
	C242.683945,223.379974 250.761551,223.494156 258.838226,223.640701 
	C258.890350,225.187729 258.942474,226.734772 258.617004,228.914856 
	C245.721359,231.012405 233.346664,230.347000 221.149017,227.051331 
z"/>
<path fill="#F3836A" opacity="1.000000" stroke="none" 
	d="
M221.298843,227.349060 
	C233.346664,230.347000 245.721359,231.012405 258.615845,229.379547 
	C262.124115,228.280029 265.255951,227.348892 268.242737,225.919724 
	C268.763397,225.037369 269.429138,224.653046 270.094879,224.268723 
	C270.240906,224.370377 270.386902,224.472031 270.774658,224.685059 
	C270.959564,225.840454 270.902771,226.884445 270.772369,228.219116 
	C265.705170,229.757416 260.711548,231.005066 255.341888,232.345978 
	C245.941528,231.945801 236.899963,231.642456 227.905212,230.824402 
	C225.675140,230.621582 223.596771,228.750824 221.298843,227.349060 
z"/>
<path fill="#FEF3F1" opacity="1.000000" stroke="none" 
	d="
M212.985260,285.000732 
	C214.285095,284.075043 215.584946,283.149384 217.112915,282.022827 
	C224.628815,283.954071 231.986908,285.878052 239.174408,288.306915 
	C242.717819,289.504303 243.473846,294.421082 240.347412,296.905151 
	C237.895813,298.853088 234.523849,299.642639 231.249680,300.621277 
	C230.980072,300.091766 231.021530,299.887787 231.025360,299.545654 
	C230.987732,299.407440 230.955124,299.118042 231.201447,299.071533 
	C231.614380,299.011871 231.780975,298.998688 232.278137,298.851807 
	C234.360153,296.943542 236.111603,295.168915 237.863068,293.394287 
	C236.100555,292.042877 234.529709,290.178467 232.540039,289.435181 
	C226.297821,287.103271 219.991623,284.645599 213.030701,285.753601 
	C212.992020,285.336426 212.988632,285.168579 212.985260,285.000732 
z"/>
<path fill="#F88C75" opacity="1.000000" stroke="none" 
	d="
M174.027069,304.912811 
	C162.711929,303.339203 151.340454,302.070007 140.118301,299.993774 
	C137.026474,299.421783 134.380157,296.441772 131.614655,294.220612 
	C131.699890,293.874542 132.153351,293.831024 132.153351,293.831024 
	C132.153351,293.831024 132.597198,293.933746 132.918030,294.045044 
	C134.814102,295.464325 136.247086,297.655151 137.987885,297.935669 
	C148.571976,299.641174 159.226181,300.911621 170.138397,302.490295 
	C171.278946,302.656281 172.138062,302.659302 173.266388,302.795013 
	C173.706924,303.031128 173.878250,303.134521 174.038452,303.517395 
	C174.027252,304.168854 174.027161,304.540833 174.027069,304.912811 
z"/>
<path fill="#F1917D" opacity="1.000000" stroke="none" 
	d="
M275.923615,259.927948 
	C276.513336,260.391510 276.685150,260.904663 276.516754,261.828308 
	C274.792816,262.563873 273.409058,262.888916 272.025299,263.213928 
	C264.196533,263.213928 256.367737,263.213928 247.825363,263.213928 
	C257.066101,259.842041 266.348236,260.312775 275.923615,259.927948 
z"/>
<path fill="#F77F65" opacity="1.000000" stroke="none" 
	d="
M296.526733,278.843811 
	C285.106812,278.826050 273.686920,278.808258 261.781189,278.530701 
	C261.223206,277.886444 261.150970,277.501984 261.078735,277.117554 
	C272.427704,277.469116 283.776642,277.820648 295.686829,278.235840 
	C296.464600,278.417786 296.557495,278.599213 296.526733,278.843811 
z"/>
<path fill="#F88C75" opacity="1.000000" stroke="none" 
	d="
M281.138000,262.202209 
	C281.075745,261.714355 281.013489,261.226471 281.014282,260.374878 
	C290.361542,260.241119 299.717010,259.890717 310.073822,263.132507 
	C301.347351,263.132507 294.106140,263.132507 286.182739,262.980774 
	C284.046387,262.620117 282.592194,262.411163 281.138000,262.202209 
z"/>
<path fill="#F3836A" opacity="1.000000" stroke="none" 
	d="
M231.062973,299.683838 
	C231.021530,299.887787 230.980072,300.091766 230.852386,300.595642 
	C220.480804,302.266876 210.195419,303.638245 199.568939,304.738800 
	C199.502655,304.054688 199.777466,303.641357 200.007477,303.099548 
	C199.962646,302.971039 199.916718,302.702972 200.245941,302.775635 
	C201.439148,302.691986 202.303116,302.535675 203.612946,302.405640 
	C207.535568,302.101868 211.014557,301.793518 214.488602,301.436859 
	C220.015137,300.869476 225.538345,300.269836 231.062973,299.683838 
z"/>
<path fill="#F88C75" opacity="1.000000" stroke="none" 
	d="
M258.827087,223.478851 
	C250.761551,223.494156 242.683945,223.379974 234.609604,223.151016 
	C233.802338,223.128128 233.014847,222.407928 232.192200,221.678711 
	C240.759933,221.306961 249.353653,221.267853 258.364655,221.568344 
	C258.823822,222.273880 258.865723,222.639847 258.907623,223.005798 
	C258.907623,223.005798 258.815918,223.317017 258.827087,223.478851 
z"/>
<path fill="#F66E4F" opacity="1.000000" stroke="none" 
	d="
M39.480392,261.950134 
	C39.782383,261.214142 40.551609,260.482178 42.048233,259.787354 
	C44.849178,260.164307 46.922726,260.504120 49.461460,260.905457 
	C56.643223,260.701965 63.359802,260.437012 70.508499,260.118103 
	C72.965004,259.896149 74.989395,259.728210 77.314743,259.674316 
	C78.069588,260.506378 78.523483,261.224365 78.977371,261.942352 
	C65.967453,261.946259 52.957539,261.950195 39.480392,261.950134 
z"/>
<path fill="#FCF0EE" opacity="1.000000" stroke="none" 
	d="
M79.221069,262.222168 
	C78.523483,261.224365 78.069588,260.506378 77.447617,259.331055 
	C81.865387,257.915527 86.455917,256.443115 91.009766,258.998779 
	C91.500015,258.738800 91.990273,258.478851 92.736725,258.111633 
	C92.363914,258.986938 91.878059,260.670258 91.081573,260.832977 
	C87.255325,261.614563 83.345139,261.985291 79.221069,262.222168 
z"/>
<path fill="#67505C" opacity="1.000000" stroke="none" 
	d="
M124.366455,278.876282 
	C124.162201,274.346893 124.290077,269.804230 124.737427,264.821045 
	C125.518936,264.262817 125.980988,264.145081 126.553223,264.474365 
	C126.967316,269.742096 127.271217,274.562836 127.373016,279.333252 
	C126.770836,279.263031 126.370750,279.243042 125.970657,279.223083 
	C125.546631,279.103058 125.122612,278.983063 124.366455,278.876282 
z"/>
<path fill="#F77F65" opacity="1.000000" stroke="none" 
	d="
M238.910309,271.270782 
	C241.261551,272.220062 243.612793,273.169312 246.455658,274.355652 
	C247.493042,275.251770 248.038803,275.910828 248.584549,276.569885 
	C245.703674,275.847412 242.631271,275.524628 240.006744,274.267090 
	C238.141815,273.373505 236.093216,271.404449 235.658997,269.555511 
	C235.416077,268.521088 238.149841,266.538696 239.820801,265.387695 
	C241.015656,264.564667 242.673080,264.413177 244.381210,264.751770 
	C242.215240,266.247833 240.049255,267.743866 237.937653,269.900574 
	C238.298111,270.797729 238.604218,271.034241 238.910309,271.270782 
z"/>
<path fill="#FDF1EE" opacity="1.000000" stroke="none" 
	d="
M297.011475,278.891846 
	C296.557495,278.599213 296.464600,278.417786 296.123718,278.192535 
	C297.198853,277.155121 298.285614,275.673920 299.619659,275.400879 
	C303.160492,274.676147 306.808105,274.473022 310.726257,274.442261 
	C311.010254,275.295258 310.981262,275.768402 310.952271,276.241516 
	C306.466919,277.140961 301.981537,278.040405 297.011475,278.891846 
z"/>
<path fill="#f87d61" opacity="1.000000" stroke="none" 
	d="
M200.052292,303.228058 
	C199.777466,303.641357 199.502655,304.054688 199.111877,304.687408 
	C190.983002,304.937744 182.970093,304.968689 174.492126,304.956238 
	C174.027161,304.540833 174.027252,304.168854 174.501617,303.472839 
	C183.334702,303.175201 191.693497,303.201630 200.052292,303.228058 
z"/>
<path fill="#F77F65" opacity="1.000000" stroke="none" 
	d="
M311.351166,276.179352 
	C310.981262,275.768402 311.010254,275.295258 311.172760,274.487183 
	C313.739136,273.358490 316.172028,272.564728 319.114868,271.390686 
	C319.791168,270.665009 319.957520,270.319672 320.123901,269.974304 
	C317.907013,268.134216 315.690155,266.294098 313.473267,264.454010 
	C313.545746,264.204315 313.618195,263.954651 313.690674,263.704956 
	C316.102814,264.751404 318.762543,265.447449 320.864532,266.932770 
	C323.503052,268.797211 323.100464,271.498474 320.474121,272.958099 
	C317.805176,274.441345 314.677063,275.098358 311.351166,276.179352 
z"/>
<path fill="#FDF1EE" opacity="1.000000" stroke="none" 
	d="
M248.872345,276.899719 
	C248.038803,275.910828 247.493042,275.251770 246.816559,274.358765 
	C251.328262,274.911865 255.970673,275.698853 260.845917,276.801697 
	C261.150970,277.501984 261.223206,277.886444 261.370789,278.555481 
	C257.350800,278.303284 253.255463,277.766418 248.872345,276.899719 
z"/>
<path fill="#4C485A" opacity="1.000000" stroke="none" 
	d="
M132.597198,293.933746 
	C132.597198,293.933746 132.153351,293.831024 132.153351,293.831024 
	C132.153351,293.831024 131.699890,293.874542 131.478210,293.922119 
	C130.731049,290.937195 130.205566,287.904724 129.696320,284.084290 
	C129.718735,282.527527 129.724915,281.758698 130.203903,280.898956 
	C131.951752,280.880615 133.226807,280.953217 134.488403,281.289673 
	C134.516083,281.724792 134.557220,281.896057 134.435913,282.473206 
	C133.714706,286.563995 133.155960,290.248871 132.597198,293.933746 
z"/>
<path fill="#FDF1EE" opacity="1.000000" stroke="none" 
	d="
M281.014282,262.599304 
	C282.592194,262.411163 284.046387,262.620117 285.734650,262.995361 
	C286.529022,263.978119 287.089325,264.794556 287.474548,266.002136 
	C286.847076,266.460449 286.394623,266.527649 285.942200,266.594849 
	C284.283508,265.359985 280.148499,267.601379 281.014282,262.599304 
z"/>
<path fill="#4C485A" opacity="1.000000" stroke="none" 
	d="
M285.442017,224.848587 
	C284.116119,226.135666 282.569489,227.171783 281.022888,228.207901 
	C280.701324,227.792404 280.379730,227.376923 280.058167,226.961441 
	C281.343140,225.506805 282.628113,224.052170 283.973999,222.257233 
	C284.430389,222.810486 284.825836,223.704056 285.442017,224.848587 
z"/>
<path fill="#FDF1EE" opacity="1.000000" stroke="none" 
	d="
M271.916931,263.583130 
	C273.409058,262.888916 274.792816,262.563873 276.500824,262.236176 
	C277.652161,265.743469 275.302673,266.099365 272.093750,266.348755 
	C270.936707,266.361938 270.477905,266.321655 270.019135,266.281372 
	C270.615631,265.505035 271.212097,264.728699 271.916931,263.583130 
z"/>
<path fill="#555062" opacity="1.000000" stroke="none" 
	d="
M272.032257,270.812744 
	C276.499603,270.662506 280.966949,270.512268 285.660065,270.769348 
	C285.885834,271.176605 285.761414,271.517700 285.761414,271.517700 
	C285.069489,271.529602 284.377533,271.541473 282.919891,271.600769 
	C279.755737,271.704468 277.357330,271.760681 274.958893,271.816895 
	C274.284882,271.676575 273.610840,271.536224 272.528717,271.280823 
	C272.120605,271.165741 272.032257,270.812744 272.032257,270.812744 
z"/>
<path fill="#4C485A" opacity="1.000000" stroke="none" 
	d="
M272.030884,233.338257 
	C273.790070,234.189575 275.409363,235.332413 277.028656,236.475235 
	C276.814087,236.910690 276.599548,237.346161 276.384979,237.781616 
	C274.825012,237.290665 273.265015,236.799728 271.396545,236.166779 
	C271.355682,235.226440 271.623322,234.428101 272.030884,233.338257 
z"/>
<path fill="#F7F2F1" opacity="1.000000" stroke="none" 
	d="
M269.877197,223.949982 
	C269.429138,224.653046 268.763397,225.037369 268.030823,225.710083 
	C266.380127,225.265320 264.796234,224.532135 263.212341,223.798965 
	C263.244019,223.308838 263.275665,222.818710 263.307343,222.328583 
	C265.424744,222.762802 267.542114,223.197021 269.877197,223.949982 
z"/>
<path fill="#4C485A" opacity="1.000000" stroke="none" 
	d="
M52.494843,217.305740 
	C54.067097,217.796417 55.524384,218.627228 56.981670,219.458038 
	C56.828674,219.801254 56.675678,220.144455 56.522682,220.487671 
	C54.995640,220.329590 53.468594,220.171509 51.577454,220.014923 
	C51.602200,219.226242 51.991039,218.436050 52.494843,217.305740 
z"/>
<path fill="#F7F2F1" opacity="1.000000" stroke="none" 
	d="
M259.273743,222.940216 
	C258.865723,222.639847 258.823822,222.273880 258.801697,221.633270 
	C259.644318,219.614853 260.467133,217.871109 261.643768,216.063690 
	C261.211670,218.291534 260.425781,220.583084 259.273743,222.940216 
z"/>
<path fill="#4F4B5C" opacity="1.000000" stroke="none" 
	d="
M163.687851,77.383820 
	C161.934753,77.720528 159.793793,78.219437 157.369232,78.483719 
	C159.157089,78.014740 161.228546,77.780380 163.687851,77.383820 
z"/>
<path fill="#EDEBEC" opacity="1.000000" stroke="none" 
	d="
M129.731110,280.989899 
	C129.724915,281.758698 129.718735,282.527527 129.612061,283.667419 
	C128.337875,282.656067 127.164185,281.273590 125.980583,279.557068 
	C126.370750,279.243042 126.770836,279.263031 127.567810,279.632385 
	C128.553497,280.317841 129.142303,280.653870 129.731110,280.989899 
z"/>
<path fill="#4C485A" opacity="1.000000" stroke="none" 
	d="
M284.992554,231.720825 
	C283.776825,231.869598 282.688202,231.763443 281.599579,231.657272 
	C281.558746,231.274109 281.517914,230.890930 281.477081,230.507767 
	C282.694061,230.328171 283.911041,230.148560 285.510742,229.979492 
	C285.635529,230.481979 285.377594,230.973938 284.992554,231.720825 
z"/>
<path fill="#4F4B5C" opacity="1.000000" stroke="none" 
	d="
M174.805176,56.677933 
	C173.317612,56.699474 171.750809,56.385204 170.075134,55.741425 
	C171.552826,55.721981 173.139374,56.032051 174.805176,56.677933 
z"/>
<path fill="#FDF1EE" opacity="1.000000" stroke="none" 
	d="
M275.211609,272.129395 
	C277.357330,271.760681 279.755737,271.704468 282.597046,271.733093 
	C280.514709,272.025970 277.989532,272.233948 275.211609,272.129395 
z"/>
<path fill="#4C485A" opacity="1.000000" stroke="none" 
	d="
M66.615700,207.960236 
	C66.862755,208.049805 66.880798,208.548630 66.799072,208.784424 
	C65.725937,209.016281 64.734520,209.012329 63.371552,209.004181 
	C63.000000,209.000000 63.000607,209.000610 63.000607,209.000610 
	C63.484291,208.355331 63.967976,207.710037 64.781235,207.016937 
	C65.530090,207.269623 65.949364,207.570145 66.615700,207.960236 
z"/>
<path fill="#4F4B5C" opacity="1.000000" stroke="none" 
	d="
M166.054535,65.321220 
	C166.233109,66.006760 166.204346,66.934120 165.917206,67.953339 
	C165.721603,67.217804 165.784409,66.390427 166.054535,65.321220 
z"/>
<path fill="#4F4B5C" opacity="1.000000" stroke="none" 
	d="
M167.244141,58.374016 
	C167.419540,59.033718 167.387299,59.925434 167.130096,60.929779 
	C166.948914,60.230286 166.992691,59.418156 167.244141,58.374016 
z"/>
<path fill="#4F4B5C" opacity="1.000000" stroke="none" 
	d="
M165.033936,71.320206 
	C165.183426,72.004341 165.144180,72.942459 164.834625,73.961441 
	C164.657944,73.219589 164.751572,72.396889 165.033936,71.320206 
z"/>
<path fill="#555062" opacity="1.000000" stroke="none" 
	d="
M286.036560,266.866852 
	C286.394623,266.527649 286.847076,266.460449 287.640991,266.331879 
	C288.159363,266.512634 288.393372,266.669556 288.836304,266.892456 
	C288.035706,267.075378 287.083344,267.107117 286.036560,266.866852 
z"/>
<path fill="#555062" opacity="1.000000" stroke="none" 
	d="
M269.865173,266.429993 
	C270.477905,266.321655 270.936707,266.361938 271.727539,266.501404 
	C271.162292,266.902954 270.264984,267.205322 269.191772,267.277954 
	C269.188690,266.804382 269.420502,266.647858 269.865173,266.429993 
z"/>
<path fill="#4F4B5C" opacity="1.000000" stroke="none" 
	d="
M172.095322,74.708954 
	C171.949936,74.026001 171.963654,73.070244 172.262817,72.039032 
	C172.450333,72.787766 172.352386,73.611961 172.095322,74.708954 
z"/>
<path fill="#FDF1EE" opacity="1.000000" stroke="none" 
	d="
M285.907227,271.796509 
	C285.761414,271.517700 285.885834,271.176605 285.927887,270.999969 
	C286.426270,270.867523 286.882599,270.911713 287.670227,271.052368 
	C287.352020,271.457642 286.702515,271.766510 285.907227,271.796509 
z"/>
<path fill="#EDEBEC" opacity="1.000000" stroke="none" 
	d="
M122.291534,283.980652 
	C122.104202,283.551422 122.199181,283.103027 122.344696,282.314026 
	C122.792969,282.357544 123.190697,282.741638 123.588440,283.125763 
	C123.250244,283.404327 122.912048,283.682922 122.291534,283.980652 
z"/>
<path fill="#4F4B5C" opacity="1.000000" stroke="none" 
	d="
M174.400620,80.514313 
	C173.795425,80.565636 172.987152,80.386375 172.019897,79.919678 
	C172.639786,79.849403 173.418655,80.066566 174.400620,80.514313 
z"/>
<path fill="#4C485A" opacity="1.000000" stroke="none" 
	d="
M282.378357,220.543274 
	C281.794800,220.625839 281.024872,220.467285 280.110931,220.034836 
	C280.708618,219.941360 281.450287,220.121765 282.378357,220.543274 
z"/>
<path fill="#FDF1EE" opacity="1.000000" stroke="none" 
	d="
M271.692688,270.875244 
	C272.032257,270.812744 272.120605,271.165741 272.185425,271.335266 
	C271.536011,271.588745 270.821716,271.672638 270.053162,271.449219 
	C270.450256,271.073853 270.901672,271.005798 271.692688,270.875244 
z"/>
<path fill="#4C485A" opacity="1.000000" stroke="none" 
	d="
M277.736389,219.618210 
	C277.337494,220.092163 276.642303,220.470520 275.622314,220.761963 
	C276.011688,220.290878 276.725922,219.906754 277.736389,219.618210 
z"/>
<path fill="#F7F2F1" opacity="1.000000" stroke="none" 
	d="
M262.243042,213.829590 
	C262.140106,213.354980 262.278992,212.709976 262.707703,212.032471 
	C262.826660,212.553055 262.655762,213.106125 262.243042,213.829590 
z"/>
<path fill="#555062" opacity="1.000000" stroke="none" 
	d="
M265.621948,267.785400 
	C265.934418,268.064240 265.964508,268.411377 266.000671,269.281433 
	C265.784393,269.154175 265.562012,268.503937 265.621948,267.785400 
z"/>
<path fill="#555062" opacity="1.000000" stroke="none" 
	d="
M292.272278,269.773376 
	C291.998718,269.458954 292.002899,269.110229 292.051636,268.239868 
	C292.247467,268.391846 292.398743,269.065460 292.272278,269.773376 
z"/>
<path fill="#FDF1EE" opacity="1.000000" stroke="none" 
	d="
M319.870026,270.117828 
	C319.957520,270.319672 319.791168,270.665009 319.357788,271.143005 
	C319.265869,270.937531 319.441010,270.599457 319.870026,270.117828 
z"/>
<path fill="#FDF1EE" opacity="1.000000" stroke="none" 
	d="
M238.831604,270.992737 
	C238.604218,271.034241 238.298111,270.797729 237.940643,270.269409 
	C238.177139,270.223328 238.465012,270.469025 238.831604,270.992737 
z"/>
<path fill="#ef8c3c" opacity="1.000000" stroke="none" 
	d="
M192.838913,250.089722 
	C192.508667,252.791794 192.178421,255.493851 191.579224,258.601440 
	C189.087769,258.166931 186.865280,257.326904 184.642776,256.486877 
	C184.015625,257.424286 183.388458,258.361664 182.761307,259.299072 
	C184.939178,260.796875 187.117050,262.294708 189.294922,263.792511 
	C186.865631,264.439056 182.315170,265.228973 182.347626,265.709106 
	C182.576431,269.093811 183.747604,272.414825 184.738617,276.219727 
	C184.295776,276.418549 182.975098,277.011536 181.270142,277.297729 
	C180.202606,268.379608 179.498230,259.769928 178.839783,251.156708 
	C175.864319,212.234772 172.901840,173.311844 169.934692,134.389282 
	C175.826416,129.632080 178.604065,122.938019 181.517426,115.896278 
	C185.789169,149.368378 191.080566,182.998337 190.819183,217.624420 
	C189.062149,217.517227 187.635101,216.896606 186.208054,216.275970 
	C185.753616,216.605286 185.299164,216.934586 184.844711,217.263901 
	C185.706146,219.007446 186.303909,220.969574 187.511475,222.426193 
	C188.498672,223.617065 190.213394,224.204865 191.591858,225.482483 
	C191.611115,227.593857 191.644089,229.282791 191.314743,231.030518 
	C190.297134,231.176132 189.451508,231.031052 189.017502,231.387375 
	C186.223999,233.680893 183.520554,236.084091 180.787552,238.451294 
	C183.157593,240.410919 185.253662,243.296906 187.966003,244.099060 
	C191.468536,245.134903 191.607819,247.812988 192.838913,250.089722 
z"/>
<path fill="#F7BAB8" opacity="1.000000" stroke="none" 
	d="
M191.605576,225.060013 
	C190.213394,224.204865 188.498672,223.617065 187.511475,222.426193 
	C186.303909,220.969574 185.706146,219.007446 184.844711,217.263901 
	C185.299164,216.934586 185.753616,216.605286 186.208054,216.275970 
	C187.635101,216.896606 189.062149,217.517227 190.857803,218.094910 
	C193.941544,220.358398 196.410141,223.078674 199.428207,224.876556 
	C204.246414,227.746796 206.425339,231.620087 205.834747,237.530182 
	C204.784393,237.637970 203.806412,237.335983 202.320587,236.769653 
	C201.162399,235.786224 200.512054,235.067139 199.991211,234.018570 
	C200.376282,227.759628 195.226624,227.164032 191.605576,225.060013 
z"/>
<path fill="#F14721" opacity="1.000000" stroke="none" 
	d="
M130.203903,280.898956 
	C129.142303,280.653870 128.553497,280.317841 127.769905,279.682678 
	C127.271217,274.562836 126.967316,269.742096 126.664261,264.024353 
	C127.175171,257.134003 127.685234,251.140701 128.195297,245.147415 
	C129.534546,236.403946 130.873795,227.660477 132.452606,218.193604 
	C133.071487,215.198410 133.450775,212.926620 133.910919,210.281403 
	C134.658554,206.284729 135.325317,202.661499 136.295807,198.895050 
	C137.690094,198.004700 138.780670,197.257584 139.901306,196.489868 
	C138.884323,194.980667 138.189041,193.948898 137.493774,192.917114 
	C141.427032,168.730682 145.360306,144.544250 149.512695,119.940613 
	C153.130188,124.412834 156.528580,129.302277 160.056824,134.900253 
	C157.255371,153.519775 154.268723,171.422028 151.439240,189.349075 
	C150.870544,192.952179 150.898972,196.649521 150.652100,200.303421 
	C150.515137,202.093674 149.185211,203.900467 148.849884,205.876114 
	C145.060760,228.200195 141.388412,250.544449 137.810196,272.903381 
	C137.503860,274.817657 138.094849,276.875580 138.334259,279.613007 
	C137.403275,279.956207 135.952560,280.491028 134.501862,281.025818 
	C133.226807,280.953217 131.951752,280.880615 130.203903,280.898956 
z"/>
<path fill="#CCC9DB" opacity="1.000000" stroke="none" 
	d="
M112.939163,214.841553 
	C110.280594,214.842987 107.622025,214.844421 104.553848,215.032715 
	C104.101692,212.641312 104.447456,209.983734 103.940178,207.500427 
	C102.667458,201.269958 101.189621,195.067383 99.464508,188.946503 
	C96.538910,178.566223 98.561195,173.153442 107.945396,169.197830 
	C112.046791,177.728149 115.499153,186.075943 119.249413,195.144043 
	C121.583633,194.818802 124.551109,194.405334 127.453285,194.000961 
	C126.578682,189.951584 126.323296,186.373520 125.007050,183.241272 
	C123.074493,178.642426 120.383629,174.362228 118.056625,169.686264 
	C118.153214,169.259705 118.209007,169.093170 118.264793,168.926636 
	C121.492134,171.715210 125.547401,173.979401 127.731934,177.428452 
	C130.315720,181.507874 131.284668,186.610092 132.774017,191.949432 
	C131.653671,194.790680 130.712921,196.951462 129.622833,199.196686 
	C129.297379,199.436447 129.164566,199.622681 128.674927,199.868683 
	C126.215668,200.419479 124.052856,200.702408 122.129395,201.536972 
	C120.513313,202.238174 118.670624,203.279221 117.817955,204.702728 
	C115.898720,207.906860 114.531212,211.441452 112.939163,214.841553 
z"/>
<path fill="#FFF6F4" opacity="1.000000" stroke="none" 
	d="
M91.001236,258.626648 
	C86.455917,256.443115 81.865387,257.915527 77.146667,259.217010 
	C74.989395,259.728210 72.965004,259.896149 70.224289,259.797668 
	C63.328529,259.371063 57.149319,259.155823 50.969353,259.131561 
	C50.313908,259.128998 49.654072,260.246216 48.996269,260.843964 
	C46.922726,260.504120 44.849178,260.164307 42.383133,259.707703 
	C37.155556,258.744629 32.286835,257.089752 27.495255,257.289093 
	C23.076641,257.472931 21.204327,255.259705 18.155270,251.822144 
	C22.160854,250.729996 25.368567,249.809097 28.600613,248.983459 
	C36.220287,247.036972 43.612965,243.291199 51.839939,245.998810 
	C52.450645,246.199783 53.151520,246.114944 53.780670,246.277985 
	C54.005444,246.336243 54.141918,246.735245 54.316135,246.975952 
	C51.929310,248.013092 49.545048,249.052979 47.078770,250.443756 
	C46.697300,251.495605 46.397846,252.196548 46.098392,252.897491 
	C47.809223,253.254395 49.520054,253.611313 51.890671,254.139465 
	C53.410023,254.323166 54.269588,254.335602 55.129158,254.348053 
	C57.430973,254.460129 59.732784,254.572205 62.807484,254.700851 
	C64.714203,254.447540 65.848038,254.177673 66.981865,253.907806 
	C69.128784,253.453323 72.253487,255.022034 72.289047,250.612396 
	C69.226746,249.400391 66.612648,248.702271 63.679474,248.001038 
	C62.722275,247.990936 62.084145,247.983978 61.446014,247.977020 
	C61.363098,247.810516 61.280186,247.644028 61.107903,246.991745 
	C61.018532,246.505936 61.030052,246.062347 61.030052,246.062347 
	C61.030052,246.062347 61.022076,245.995789 61.285507,246.007263 
	C61.548943,246.018723 62.018230,245.956741 62.018230,245.956741 
	C67.054108,245.678116 72.089989,245.399490 77.859848,245.213211 
	C81.061340,246.206131 83.528839,247.106705 85.996338,248.007278 
	C87.661789,251.423019 89.327248,254.838745 91.001236,258.626648 
z"/>
<path fill="#494558" opacity="1.000000" stroke="none" 
	d="
M118.015854,169.946274 
	C120.383629,174.362228 123.074493,178.642426 125.007050,183.241272 
	C126.323296,186.373520 126.578682,189.951584 127.453285,194.000961 
	C124.551109,194.405334 121.583633,194.818802 119.249413,195.144043 
	C115.499153,186.075943 112.046791,177.728149 108.302490,169.187225 
	C108.410393,167.585831 108.810226,166.177597 109.708344,165.021118 
	C112.809692,166.830673 115.412773,168.388474 118.015854,169.946274 
z"/>
<path fill="#46435A" opacity="1.000000" stroke="none" 
	d="
M111.101830,162.978333 
	C110.866287,162.182144 110.536560,161.400528 110.410873,160.587357 
	C109.727562,156.166428 108.633171,151.308594 113.547287,148.723511 
	C117.944801,146.410187 126.309822,149.098022 128.974945,153.131241 
	C130.487274,155.419876 129.612549,156.862640 126.183586,157.181305 
	C122.995216,158.431580 120.548851,159.727982 117.598053,161.291702 
	C117.155106,160.902359 116.128563,160.000046 114.934929,158.950882 
	C113.514099,160.443741 112.307961,161.711044 111.101830,162.978333 
z"/>
<path fill="#9E646E" opacity="1.000000" stroke="none" 
	d="
M110.994766,163.202011 
	C112.307961,161.711044 113.514099,160.443741 114.934929,158.950882 
	C116.128563,160.000046 117.155106,160.902359 117.598053,161.291702 
	C120.548851,159.727982 122.995216,158.431580 125.821686,157.203156 
	C126.871246,163.364868 122.291740,165.626282 118.229279,168.582947 
	C118.209007,169.093170 118.153214,169.259705 118.056633,169.686264 
	C115.412773,168.388474 112.809692,166.830673 110.094345,164.926788 
	C110.283958,164.195679 110.585831,163.810684 110.994766,163.202011 
z"/>
<path fill="#F5E7E4" opacity="1.000000" stroke="none" 
	d="
M86.400871,248.014160 
	C83.528839,247.106705 81.061340,246.206131 78.269806,245.151276 
	C78.740601,244.645508 79.535439,244.294022 80.675308,243.907822 
	C86.265381,245.188263 91.512703,246.494431 96.753799,247.825089 
	C98.018211,248.146103 99.262047,248.548172 101.702660,249.258560 
	C95.764656,251.266464 91.373833,248.313568 86.400871,248.014160 
z"/>
<path fill="#9E646E" opacity="1.000000" stroke="none" 
	d="
M129.772156,199.112244 
	C130.712921,196.951462 131.653671,194.790680 132.796082,192.327850 
	C134.277740,192.323090 135.557709,192.620361 137.165741,192.917374 
	C138.189041,193.948898 138.884323,194.980667 139.901306,196.489868 
	C138.780670,197.257584 137.690094,198.004700 135.853714,198.907990 
	C133.329330,199.080200 131.550735,199.096222 129.772156,199.112244 
z"/>
<path fill="#F5E7E4" opacity="1.000000" stroke="none" 
	d="
M101.140030,256.375061 
	C99.177689,257.184357 97.479942,257.741547 95.782196,258.298737 
	C95.639374,257.951447 95.496552,257.604187 95.353737,257.256927 
	C97.699814,255.333450 100.045898,253.409973 102.391983,251.486511 
	C102.777603,251.586624 103.163216,251.686752 103.548836,251.786865 
	C102.834091,253.232224 102.119354,254.677582 101.140030,256.375061 
z"/>
<path fill="#F4F0F0" opacity="1.000000" stroke="none" 
	d="
M134.488403,281.289673 
	C135.952560,280.491028 137.403275,279.956207 138.334259,279.613007 
	C138.094849,276.875580 137.503860,274.817657 137.810196,272.903381 
	C141.388412,250.544449 145.060760,228.200195 148.849884,205.876114 
	C149.185211,203.900467 150.515137,202.093674 150.652100,200.303421 
	C150.898972,196.649521 150.870544,192.952179 151.439240,189.349075 
	C154.268723,171.422028 157.255371,153.519775 160.279419,135.153763 
	C163.307037,134.654144 166.241959,134.609558 169.555786,134.477127 
	C172.901840,173.311844 175.864319,212.234772 178.839783,251.156708 
	C179.498230,259.769928 180.202606,268.379608 180.949951,277.387665 
	C180.942566,279.972321 180.871078,282.160217 180.863052,285.066833 
	C180.958481,286.247406 180.990448,286.709290 180.995316,287.574280 
	C179.857803,288.650452 178.781464,289.841705 177.631714,289.917358 
	C164.549393,290.778229 151.545120,290.140747 138.812729,286.814240 
	C137.621689,286.503052 136.921768,284.312073 135.901245,282.804535 
	C135.634781,282.360626 135.394089,282.243805 134.961731,282.222321 
	C134.836838,282.179962 134.598358,282.067291 134.598358,282.067291 
	C134.557220,281.896057 134.516083,281.724792 134.488403,281.289673 
z"/>
<path fill="#444053" opacity="1.000000" stroke="none" 
	d="
M179.999298,99.004791 
	C177.381912,107.200424 175.516754,115.327232 171.923065,122.599907 
	C168.715958,129.090240 162.005936,128.203903 158.377121,121.850639 
	C153.311203,112.981300 151.737030,103.689415 153.959229,93.696663 
	C155.111404,88.515602 159.301117,85.471695 164.388626,86.676575 
	C168.040054,87.541336 171.702011,88.505478 175.197266,89.847267 
	C179.052216,91.327148 180.720993,94.378273 179.999298,99.004791 
z"/>
<path fill="#484457" opacity="1.000000" stroke="none" 
	d="
M113.016167,215.226685 
	C114.531212,211.441452 115.898720,207.906860 117.817955,204.702728 
	C118.670624,203.279221 120.513313,202.238174 122.129395,201.536972 
	C124.052856,200.702408 126.215668,200.419479 128.738281,200.236145 
	C130.744537,203.934769 132.287292,207.294800 133.830063,210.654846 
	C133.450775,212.926620 133.071487,215.198410 132.461639,217.762482 
	C130.769547,217.348145 129.307999,216.641510 127.667137,215.848190 
	C123.804474,219.046402 117.011551,219.064743 113.016167,215.226685 
z"/>
<path fill="#BDB1B2" opacity="1.000000" stroke="none" 
	d="
M128.070541,244.885010 
	C127.685234,251.140701 127.175171,257.134003 126.554070,263.577332 
	C125.980988,264.145081 125.518936,264.262817 124.822754,264.429260 
	C122.293594,257.587372 125.609276,251.356964 126.913727,244.498901 
	C127.271019,244.281052 127.608398,244.451828 128.070541,244.885010 
z"/>
<path fill="#FFF6F4" opacity="1.000000" stroke="none" 
	d="
M135.993820,282.993896 
	C136.921768,284.312073 137.621689,286.503052 138.812729,286.814240 
	C151.545120,290.140747 164.549393,290.778229 177.631714,289.917358 
	C178.781464,289.841705 179.857803,288.650452 181.210968,287.533020 
	C181.453720,287.088654 181.865799,286.938232 181.865799,286.938232 
	C182.069702,286.998688 182.273590,287.059113 183.015869,287.481750 
	C184.332214,290.401367 185.110199,292.958801 186.075607,296.132385 
	C187.278412,293.282410 188.199173,291.100708 189.119919,288.919006 
	C189.885498,288.936951 190.651077,288.954895 191.283096,289.432983 
	C190.922729,290.715698 190.695923,291.538208 190.469116,292.360748 
	C192.683121,292.489105 194.897125,292.617432 197.111130,292.745789 
	C199.487457,293.360687 201.863785,293.975586 204.627335,294.893738 
	C204.963135,297.981415 206.571243,299.592010 209.025940,298.715942 
	C210.631409,298.143005 212.377884,296.131042 212.785095,294.453827 
	C213.436157,291.772186 213.026962,288.833160 213.065979,286.002930 
	C219.991623,284.645599 226.297821,287.103271 232.540039,289.435181 
	C234.529709,290.178467 236.100555,292.042877 237.863068,293.394287 
	C236.111603,295.168915 234.360153,296.943542 232.160263,298.717224 
	C231.459595,298.850250 231.207367,298.984131 230.955124,299.118042 
	C230.955124,299.118042 230.987732,299.407440 231.025360,299.545654 
	C225.538345,300.269836 220.015137,300.869476 214.488602,301.436859 
	C211.014557,301.793518 207.535568,302.101868 203.441772,302.107788 
	C201.855423,302.090118 200.886063,302.396545 199.916718,302.702972 
	C199.916718,302.702972 199.962646,302.971039 200.007477,303.099548 
	C191.693497,303.201630 183.334702,303.175201 174.512726,303.193359 
	C173.878250,303.134521 173.706924,303.031128 173.186615,302.489899 
	C171.844086,302.143799 170.850540,302.235565 169.856979,302.327332 
	C159.226181,300.911621 148.571976,299.641174 137.987885,297.935669 
	C136.247086,297.655151 134.814102,295.464325 132.918045,294.045044 
	C133.155960,290.248871 133.714706,286.563995 134.435913,282.473206 
	C134.598358,282.067291 134.836838,282.179962 135.070343,282.387238 
	C135.498047,282.789398 135.728043,282.922516 135.993820,282.993896 
z"/>
<path fill="#CCC9DB" opacity="1.000000" stroke="none" 
	d="
M213.030701,285.753601 
	C213.026962,288.833160 213.436157,291.772186 212.785095,294.453827 
	C212.377884,296.131042 210.631409,298.143005 209.025940,298.715942 
	C206.571243,299.592010 204.963135,297.981415 204.970856,294.766510 
	C205.942154,292.177216 207.462891,290.103851 207.845398,287.838318 
	C208.334000,284.944366 209.765457,284.450775 212.574188,284.903809 
	C212.988632,285.168579 212.992020,285.336426 213.030701,285.753601 
z"/>
<path fill="#F7BAB8" opacity="1.000000" stroke="none" 
	d="
M189.634323,263.905701 
	C187.117050,262.294708 184.939178,260.796875 182.761307,259.299072 
	C183.388458,258.361664 184.015625,257.424286 184.642776,256.486877 
	C186.865280,257.326904 189.087769,258.166931 191.662872,259.016296 
	C192.015457,259.025665 191.953522,259.001617 192.051392,259.127594 
	C192.281631,259.489685 192.482758,259.618195 192.752625,259.639099 
	C194.508041,261.275146 196.263458,262.911194 198.044006,264.947021 
	C195.370682,264.904175 192.672195,264.461548 189.634323,263.905701 
z"/>
<path fill="#E1D6DA" opacity="1.000000" stroke="none" 
	d="
M188.976135,288.566071 
	C188.199173,291.100708 187.278412,293.282410 186.075607,296.132385 
	C185.110199,292.958801 184.332214,290.401367 183.321320,287.573730 
	C185.003052,287.606720 186.917694,287.909912 188.976135,288.566071 
z"/>
<path fill="#FEF3F1" opacity="1.000000" stroke="none" 
	d="
M196.980103,292.433105 
	C194.897125,292.617432 192.683121,292.489105 190.469116,292.360748 
	C190.695923,291.538208 190.922729,290.715698 191.480881,289.767731 
	C193.491180,290.468353 195.170135,291.294403 196.980103,292.433105 
z"/>
<path fill="#E1D6DA" opacity="1.000000" stroke="none" 
	d="
M181.856888,286.664795 
	C181.865799,286.938232 181.453720,287.088654 181.238068,287.129944 
	C180.990448,286.709290 180.958481,286.247406 180.956345,285.441467 
	C181.273438,285.528717 181.560699,285.960022 181.856888,286.664795 
z"/>
<path fill="#FCF0EE" opacity="1.000000" stroke="none" 
	d="
M63.998547,248.004150 
	C66.612648,248.702271 69.226746,249.400391 71.922913,250.449860 
	C69.608879,250.529785 67.212784,250.258347 64.408707,249.604263 
	C64.000000,248.815796 63.999275,248.409973 63.998547,248.004150 
z"/>
<path fill="#6B6675" opacity="1.000000" stroke="none" 
	d="
M66.767593,253.673462 
	C65.848038,254.177673 64.714203,254.447540 63.234512,254.618027 
	C64.110214,254.158798 65.331772,253.798965 66.767593,253.673462 
z"/>
<path fill="#6B6675" opacity="1.000000" stroke="none" 
	d="
M55.020187,254.085953 
	C54.269588,254.335602 53.410023,254.323166 52.282066,254.115173 
	C52.979527,253.887711 53.945370,253.855789 55.020187,254.085953 
z"/>
<path fill="#FAEEEC" opacity="1.000000" stroke="none" 
	d="
M63.679474,248.001038 
	C63.999275,248.409973 64.000000,248.815796 64.001740,249.526031 
	C63.094879,249.438950 62.187004,249.047440 61.362572,248.316467 
	C62.084145,247.983978 62.722275,247.990936 63.679474,248.001038 
z"/>
<path fill="#4C485A" opacity="1.000000" stroke="none" 
	d="
M62.999760,208.999695 
	C62.460659,209.611588 61.921799,210.223770 61.382942,210.835968 
	C61.088375,210.552567 60.793808,210.269150 60.499237,209.985748 
	C61.105366,209.658463 61.711494,209.331192 62.659119,209.002258 
	C63.000607,209.000610 63.000000,209.000000 62.999760,208.999695 
z"/>
<path fill="#4C485A" opacity="1.000000" stroke="none" 
	d="
M63.392521,214.474121 
	C62.945023,214.359818 62.671207,214.079346 62.418625,213.780899 
	C62.412079,213.773178 62.637669,213.568970 62.754997,213.456406 
	C63.026340,213.739456 63.297676,214.022507 63.392521,214.474121 
z"/>
<path fill="#FAEEEC" opacity="1.000000" stroke="none" 
	d="
M60.820034,240.113312 
	C61.259148,240.584900 61.395687,241.124207 61.329750,241.806305 
	C60.924000,241.359756 60.720726,240.770401 60.820034,240.113312 
z"/>
<path fill="#FAEEEC" opacity="1.000000" stroke="none" 
	d="
M66.502686,213.656708 
	C66.848503,214.263184 66.852547,214.985718 66.768768,216.247086 
	C66.507607,215.781540 66.334267,214.777145 66.502686,213.656708 
z"/>
<path fill="#FAEEEC" opacity="1.000000" stroke="none" 
	d="
M62.008312,245.704926 
	C62.018230,245.956741 61.548943,246.018723 61.312431,246.027222 
	C61.130699,245.602692 61.185478,245.169662 61.330513,244.422394 
	C61.613308,244.556458 61.805851,245.004776 62.008312,245.704926 
z"/>
<path fill="#FAEEEC" opacity="1.000000" stroke="none" 
	d="
M60.771488,246.084656 
	C61.030052,246.062347 61.018532,246.505936 61.017689,246.727753 
	C60.848873,246.668701 60.680901,246.387817 60.771488,246.084656 
z"/>
<path fill="#46435A" opacity="1.000000" stroke="none" 
	d="
M199.861725,234.348038 
	C200.512054,235.067139 201.162399,235.786224 202.007660,236.721619 
	C201.781799,242.403824 202.553513,247.317245 206.611969,251.657181 
	C207.882263,253.015579 207.802643,256.470520 207.076233,258.516815 
	C206.702118,259.570679 203.549438,259.638184 201.703140,260.137604 
	C199.938950,255.710754 198.870529,251.151230 193.219177,250.053101 
	C191.607819,247.812988 191.468536,245.134903 187.966003,244.099060 
	C185.253662,243.296906 183.157593,240.410919 180.787552,238.451294 
	C183.520554,236.084091 186.223999,233.680893 189.017502,231.387375 
	C189.451508,231.031052 190.297134,231.176132 191.656219,231.186737 
	C194.860596,232.305420 197.361160,233.326721 199.861725,234.348038 
z"/>
<path fill="#F24822" opacity="1.000000" stroke="none" 
	d="
M192.638763,259.502380 
	C192.482758,259.618195 192.281631,259.489685 192.053192,259.094421 
	C192.129700,259.100739 192.318970,259.244171 192.638763,259.502380 
z"/>
<path fill="#F3836A" opacity="1.000000" stroke="none" 
	d="
M231.201447,299.071533 
	C231.207367,298.984131 231.459595,298.850250 231.829712,298.850891 
	C231.780975,298.998688 231.614380,299.011871 231.201447,299.071533 
z"/>
<path fill="#FEF3F1" opacity="1.000000" stroke="none" 
	d="
M170.138397,302.490295 
	C170.850540,302.235565 171.844086,302.143799 172.917419,302.357178 
	C172.138062,302.659302 171.278946,302.656281 170.138397,302.490295 
z"/>
<path fill="#FEF3F1" opacity="1.000000" stroke="none" 
	d="
M200.245941,302.775635 
	C200.886063,302.396545 201.855423,302.090118 202.995926,302.081543 
	C202.303116,302.535675 201.439148,302.691986 200.245941,302.775635 
z"/>
<path fill="#FCF0EE" opacity="1.000000" stroke="none" 
	d="
M49.461456,260.905457 
	C49.654072,260.246216 50.313908,259.128998 50.969353,259.131561 
	C57.149319,259.155823 63.328529,259.371063 69.792168,259.851654 
	C63.359802,260.437012 56.643223,260.701965 49.461456,260.905457 
z"/>
<path fill="#EDEBEC" opacity="1.000000" stroke="none" 
	d="
M199.991211,234.018570 
	C197.361160,233.326721 194.860596,232.305420 192.018555,231.127914 
	C191.644089,229.282791 191.611115,227.593857 191.591858,225.482483 
	C195.226624,227.164032 200.376282,227.759628 199.991211,234.018570 
z"/>
<path fill="#E1D6DA" opacity="1.000000" stroke="none" 
	d="
M133.910919,210.281403 
	C132.287292,207.294800 130.744537,203.934769 129.138428,200.207275 
	C129.164566,199.622681 129.297379,199.436447 129.622833,199.196686 
	C131.550735,199.096222 133.329330,199.080200 135.549988,199.051239 
	C135.325317,202.661499 134.658554,206.284729 133.910919,210.281403 
z"/>
<path fill="#FEF3F1" opacity="1.000000" stroke="none" 
	d="
M135.901245,282.804535 
	C135.728043,282.922516 135.498047,282.789398 135.195221,282.429596 
	C135.394089,282.243805 135.634781,282.360626 135.901245,282.804535 
z"/>
</svg>