<svg version="1.1" id="Layer_1" xmlns="http://www.w3.org/2000/svg" xmlns:xlink="http://www.w3.org/1999/xlink" x="0px" y="0px"
	 width="100%" viewBox="0 0 344 349" enable-background="new 0 0 344 349" xml:space="preserve">
<path fill="#FFF6F4" opacity="1.000000" stroke="none" 
	d="
M188.000000,350.000000 
	C125.333344,350.000000 63.166687,350.000000 1.000025,350.000000 
	C1.000017,233.666702 1.000017,117.333397 1.000008,1.000072 
	C115.666618,1.000048 230.333237,1.000048 344.999878,1.000024 
	C344.999939,117.333260 344.999939,233.666519 344.999969,349.999878 
	C292.833344,350.000000 240.666672,350.000000 188.000000,350.000000 
M225.832108,299.180847 
	C226.631882,300.441284 227.368942,301.746979 228.241318,302.954987 
	C235.253891,312.665344 245.119904,315.914581 256.341125,313.715515 
	C266.727570,311.679962 273.993866,304.922028 276.471039,294.481415 
	C279.597412,281.304596 275.240051,267.056732 256.892731,259.831390 
	C256.892792,211.000046 256.894348,162.168701 256.890991,113.337349 
	C256.890594,107.566727 256.100464,106.765717 250.234238,106.753555 
	C239.068085,106.730392 227.901855,106.746834 216.735657,106.746841 
	C214.654083,106.746841 212.572495,106.746849 210.161530,106.746849 
	C210.161530,94.393913 210.203888,82.911987 210.143768,71.430603 
	C210.113464,65.646744 208.729660,64.274124 203.151459,64.272507 
	C158.819992,64.259636 114.488525,64.260857 70.157059,64.270088 
	C64.552521,64.271255 63.459713,65.253334 63.456341,70.972206 
	C63.420681,131.469635 63.423378,191.967102 63.450203,252.464554 
	C63.452667,258.020081 64.659637,259.175873 70.285637,259.198792 
	C82.618248,259.249023 94.951202,259.214050 107.284019,259.213898 
	C109.036797,259.213867 110.789574,259.213928 112.897102,259.213928 
	C112.897102,270.595612 112.892532,281.240051 112.898781,291.884491 
	C112.902702,298.577362 113.128746,298.793945 120.034866,298.810516 
	C123.868019,298.819702 127.701218,298.818604 131.534378,298.810913 
	C162.862274,298.747925 194.190155,298.682312 225.832108,299.180847 
z"/>
<path fill="#3C3B4C" opacity="1.000000" stroke="none" 
	d="
M225.518051,298.617493 
	C194.190155,298.682312 162.862274,298.747925 131.534378,298.810913 
	C127.701218,298.818604 123.868019,298.819702 120.034866,298.810516 
	C113.128746,298.793945 112.902702,298.577362 112.898781,291.884491 
	C112.892532,281.240051 112.897102,270.595612 112.897102,259.213928 
	C110.789574,259.213928 109.036797,259.213867 107.284019,259.213898 
	C94.951202,259.214050 82.618248,259.249023 70.285637,259.198792 
	C64.659637,259.175873 63.452667,258.020081 63.450203,252.464554 
	C63.423378,191.967102 63.420681,131.469635 63.456341,70.972206 
	C63.459713,65.253334 64.552521,64.271255 70.157059,64.270088 
	C114.488525,64.260857 158.819992,64.259636 203.151459,64.272507 
	C208.729660,64.274124 210.113464,65.646744 210.143768,71.430603 
	C210.203888,82.911987 210.161530,94.393913 210.161530,106.746849 
	C212.572495,106.746849 214.654083,106.746841 216.735657,106.746841 
	C227.901855,106.746834 239.068085,106.730392 250.234238,106.753555 
	C256.100464,106.765717 256.890594,107.566727 256.890991,113.337349 
	C256.894348,162.168701 256.892792,211.000046 256.489624,260.325867 
	C254.816193,260.539673 253.545853,260.258972 252.382507,259.844177 
	C252.489532,259.710114 252.774902,259.900543 252.972168,259.819092 
	C253.014526,259.453583 252.859634,259.169495 252.559494,258.442657 
	C252.392685,211.536774 252.377182,165.073654 252.342133,118.610527 
	C252.337555,112.538193 251.739792,111.938057 245.839737,111.936546 
	C205.038300,111.926117 164.236877,111.925919 123.435440,111.937263 
	C117.404602,111.938934 117.065239,112.302658 117.060547,118.602875 
	C117.046783,137.088425 117.055756,155.573959 117.055847,174.059509 
	C117.056038,212.196365 117.079666,250.333237 117.019264,288.470001 
	C117.013390,292.178101 117.273346,295.109222 122.111801,295.092560 
	C155.414062,294.977692 188.716599,294.941376 222.258331,294.938507 
	C222.497604,294.997223 222.970383,294.858368 223.275055,294.925537 
	C223.787613,294.986115 223.995499,294.979584 224.422546,295.214447 
	C224.933823,296.509735 225.225937,297.563599 225.518051,298.617493 
M112.852051,187.018753 
	C112.812355,173.494003 112.772659,159.969254 112.894577,145.732910 
	C112.827370,136.948853 112.760170,128.164810 112.855392,118.541214 
	C113.094795,115.056770 113.334206,111.572327 114.256340,107.726028 
	C118.001472,107.416100 121.744843,106.863045 125.492027,106.835876 
	C149.027145,106.665207 172.563110,106.611588 196.959030,106.729034 
	C199.232101,106.729034 201.505157,106.729034 204.228455,106.729034 
	C204.228455,96.332207 204.249527,86.538345 204.220901,76.744637 
	C204.202530,70.461952 203.720551,70.006721 197.331604,70.005890 
	C157.186493,70.000656 117.041367,70.002800 76.896248,70.003708 
	C69.221542,70.003883 69.050049,70.163086 69.049469,77.814232 
	C69.045227,133.617615 69.047066,189.420990 69.047043,245.224380 
	C69.047043,245.724106 69.090469,246.228058 69.041603,246.722916 
	C68.581726,251.379730 70.459740,253.327957 75.339684,253.218613 
	C86.494751,252.968613 97.659286,253.151016 108.819901,253.124817 
	C110.084030,253.121857 111.347672,252.907974 112.743286,252.779800 
	C112.743286,239.975327 112.743286,227.511673 112.894814,214.115860 
	C112.823067,205.388168 112.751328,196.660492 112.852051,187.018753 
z"/>
<path fill="#F34620" opacity="1.000000" stroke="none" 
	d="
M252.275497,259.978241 
	C253.545853,260.258972 254.816193,260.539673 256.482849,260.777832 
	C275.240051,267.056732 279.597412,281.304596 276.471039,294.481415 
	C273.993866,304.922028 266.727570,311.679962 256.341125,313.715515 
	C245.119904,315.914581 235.253891,312.665344 228.241318,302.954987 
	C227.368942,301.746979 226.631882,300.441284 225.675079,298.899170 
	C225.225937,297.563599 224.933823,296.509735 224.403351,294.748810 
	C222.550797,285.370667 224.123840,277.366760 229.397644,270.005066 
	C229.900101,269.727203 230.047867,269.460785 230.369324,268.978333 
	C236.454132,262.414612 244.080109,260.502350 252.275497,259.978241 
M251.919098,285.659058 
	C251.079010,287.067535 250.238922,288.476044 249.279099,290.085266 
	C246.886887,287.539886 245.680939,286.256744 244.261505,284.746429 
	C242.706833,285.986542 241.340881,287.076141 239.786545,288.316010 
	C242.558868,291.868530 245.061234,295.075104 247.893539,298.704468 
	C253.952789,292.300751 259.679840,286.248108 265.650940,279.937561 
	C263.939880,278.349396 262.673553,277.174042 261.222687,275.827362 
	C258.090149,279.136230 255.261169,282.124451 251.919098,285.659058 
z"/>
<path fill="#F2EFEE" opacity="1.000000" stroke="none" 
	d="
M252.382507,259.844177 
	C244.080109,260.502350 236.454132,262.414612 230.244705,268.702332 
	C229.536057,268.030060 229.261093,267.492828 228.974411,266.523926 
	C227.470123,265.368774 225.980484,264.021454 224.484512,264.014404 
	C197.490173,263.887115 170.495056,263.915283 143.500122,263.939819 
	C142.147705,263.941040 140.795517,264.209900 139.443237,264.354126 
	C139.366119,264.953278 139.289001,265.552399 139.211884,266.151520 
	C140.829803,266.467316 142.446442,267.049530 144.065842,267.057343 
	C158.729431,267.128204 173.393616,267.059906 188.057358,267.109955 
	C201.378235,267.155396 214.698746,267.297546 228.028168,267.714783 
	C228.417389,268.718842 228.797867,269.405212 229.178345,270.091583 
	C224.123840,277.366760 222.550797,285.370667 224.184174,294.507385 
	C223.995499,294.979584 223.787613,294.986115 223.183014,294.782928 
	C222.530563,294.675385 222.274796,294.777588 222.019043,294.879761 
	C188.716599,294.941376 155.414062,294.977692 122.111801,295.092560 
	C117.273346,295.109222 117.013390,292.178101 117.019264,288.470001 
	C117.079666,250.333237 117.056038,212.196365 117.055847,174.059509 
	C117.055756,155.573959 117.046783,137.088425 117.060547,118.602875 
	C117.065239,112.302658 117.404602,111.938934 123.435440,111.937263 
	C164.236877,111.925919 205.038300,111.926117 245.839737,111.936546 
	C251.739792,111.938057 252.337555,112.538193 252.342133,118.610527 
	C252.377182,165.073654 252.392685,211.536774 252.480255,258.703186 
	C252.622482,259.571198 252.698685,259.735870 252.774902,259.900543 
	C252.774902,259.900543 252.489532,259.710114 252.382507,259.844177 
M140.291840,246.777802 
	C140.067108,247.134171 139.842377,247.490540 139.598694,248.764511 
	C140.603699,249.138779 141.608017,249.837799 142.613831,249.839966 
	C170.230682,249.899506 197.847763,249.908417 225.464447,249.816544 
	C226.610458,249.812744 227.752960,248.755402 228.897110,248.188889 
	C227.698166,247.645233 226.499207,246.627365 225.300293,246.627441 
	C197.188080,246.628998 169.075882,246.740524 140.291840,246.777802 
M139.344406,138.535019 
	C138.284332,147.471542 138.284348,147.483185 147.152832,147.469696 
	C172.813065,147.430649 198.473419,147.405426 224.133240,147.278610 
	C225.736832,147.270691 227.336319,146.435333 229.153748,145.504105 
	C229.114410,145.332855 229.075089,145.161591 229.240707,144.091995 
	C229.240707,142.156387 229.240707,140.220779 229.240707,138.050674 
	C227.551865,137.907684 226.426712,137.727066 225.301987,137.729660 
	C197.204483,137.794693 169.107040,137.879044 140.486908,137.867935 
	C140.338516,137.964249 140.190140,138.060562 139.344406,138.535019 
M201.499756,198.375839 
	C209.649399,198.372742 217.800903,198.451614 225.946396,198.266037 
	C227.001221,198.241989 228.024902,196.851593 229.063004,196.094101 
	C228.096863,195.469925 227.180420,194.736389 226.144516,194.265793 
	C225.592575,194.015045 224.834061,194.217834 224.168793,194.217834 
	C197.391296,194.217636 170.613815,194.217041 143.836319,194.220139 
	C142.839523,194.220245 141.785110,194.065552 140.865860,194.342514 
	C140.234787,194.532639 139.323303,195.390411 139.368744,195.871109 
	C139.446320,196.691498 140.021927,197.920792 140.666809,198.133331 
	C141.878464,198.532623 143.288620,198.370148 144.616257,198.370758 
	C163.244080,198.379166 181.871887,198.375656 201.499756,198.375839 
M161.500061,206.841461 
	C182.785797,206.841034 204.071747,206.875168 225.356766,206.751846 
	C226.594681,206.744675 227.825195,205.461594 229.059158,204.772293 
	C227.874786,204.218323 226.691986,203.184647 225.505798,203.180740 
	C197.901138,203.089523 170.296066,203.088547 142.691452,203.184570 
	C141.540283,203.188568 140.392944,204.290756 139.243820,204.881317 
	C140.342651,205.534561 141.424866,206.717560 142.543091,206.752625 
	C148.523819,206.940186 154.513535,206.841187 161.500061,206.841461 
M192.499954,258.714966 
	C203.312256,258.714996 214.125397,258.780548 224.935837,258.638550 
	C226.418488,258.619110 227.887558,257.567078 229.362930,256.993103 
	C229.184174,256.449677 229.005432,255.906265 228.826691,255.362854 
	C227.538391,255.266876 226.250153,255.087891 224.961807,255.087128 
	C197.847916,255.070908 170.733902,255.047455 143.620407,255.149811 
	C142.155670,255.155334 140.695038,256.248840 139.232498,256.835876 
	C140.686050,257.462463 142.135269,258.621918 143.593842,258.633850 
	C159.561691,258.764038 175.531021,258.715057 192.499954,258.714966 
M178.500015,177.195908 
	C166.517181,177.195602 154.533722,177.143143 142.552567,177.285110 
	C141.491150,177.297684 140.444748,178.577621 139.391373,179.268936 
	C140.393890,179.841873 141.381470,180.444153 142.409180,180.967590 
	C142.673706,181.102325 143.064621,180.989349 143.397476,180.989349 
	C170.691727,180.989243 197.986084,181.013596 225.279984,180.912842 
	C226.576935,180.908051 227.869797,179.794632 229.164551,179.197479 
	C227.754684,178.530212 226.350082,177.295959 224.934174,177.282867 
	C209.790482,177.142807 194.645020,177.195969 178.500015,177.195908 
M197.499939,241.336212 
	C206.484802,241.336227 215.471069,241.416794 224.453125,241.258026 
	C225.972565,241.231155 227.473770,240.173874 228.983414,239.592682 
	C227.569931,238.926697 226.158875,237.685822 224.742584,237.679810 
	C197.622101,237.564468 170.500916,237.569427 143.380310,237.667847 
	C142.039703,237.672699 140.703003,238.753189 139.364471,239.332825 
	C140.772659,240.000870 142.176575,241.239670 143.589722,241.250259 
	C161.225677,241.382553 178.862976,241.336685 197.499939,241.336212 
M148.571320,229.048752 
	C146.072052,229.059052 143.566498,228.976639 141.077988,229.145355 
	C140.461609,229.187149 139.900482,230.043365 139.313934,230.525192 
	C139.878342,231.208145 140.316452,232.194092 141.039841,232.495560 
	C141.899414,232.853790 143.004242,232.645020 144.002792,232.645172 
	C170.666885,232.649063 197.330978,232.649979 223.995071,232.642105 
	C225.158768,232.641769 226.370193,232.730713 227.467239,232.435532 
	C228.073624,232.272369 228.865845,231.406921 228.881271,230.839218 
	C228.896164,230.291504 228.098251,229.356506 227.519882,229.232376 
	C226.239944,228.957657 224.873688,229.053619 223.542603,229.053268 
	C198.878311,229.046967 174.214035,229.048737 148.571320,229.048752 
M169.500000,223.957306 
	C187.785187,223.957382 206.070496,223.986954 224.355316,223.906342 
	C225.970352,223.899216 227.582184,223.172592 229.195511,222.780136 
	C229.061417,222.215012 228.927322,221.649887 228.793228,221.084763 
	C199.019470,221.084763 169.245712,221.084763 139.180984,221.084763 
	C139.445297,222.149689 139.580963,223.287384 139.749908,223.292328 
	C149.331512,223.573746 158.915894,223.760834 169.500000,223.957306 
M206.499939,215.175186 
	C212.822021,215.175018 219.145691,215.248779 225.464859,215.112885 
	C226.742813,215.085403 228.003738,214.265076 229.272507,213.810272 
	C229.121750,213.335999 228.970993,212.861725 228.820221,212.387451 
	C199.024719,212.387451 169.229202,212.387451 139.433685,212.387451 
	C139.311279,212.965897 139.188873,213.544357 139.066452,214.122803 
	C140.580994,214.473755 142.094543,215.125366 143.610214,215.130295 
	C164.239944,215.197617 184.869995,215.175369 206.499939,215.175186 
M217.479218,160.020447 
	C193.365875,160.020416 169.252533,160.020386 145.139191,160.020386 
	C144.141403,160.020386 143.090134,159.823639 142.160645,160.075714 
	C141.206406,160.334549 140.371170,161.032135 139.483871,161.537735 
	C140.287506,162.122589 141.021194,162.887238 141.916809,163.235687 
	C142.639603,163.516876 143.557755,163.297440 144.389236,163.297440 
	C170.997055,163.297562 197.604889,163.297363 224.212708,163.297211 
	C225.799240,163.297195 227.385757,163.297211 228.972290,163.297211 
	C229.041199,162.748428 229.110107,162.199661 229.179016,161.650879 
	C226.268280,158.357956 221.987671,160.782547 217.479218,160.020447 
M174.500031,168.799179 
	C164.189697,168.798981 153.878677,168.741409 143.569901,168.868317 
	C142.222794,168.884903 140.887329,169.848877 139.546478,170.374039 
	C140.872116,170.914810 142.196167,171.922958 143.523621,171.927444 
	C170.629517,172.019165 197.735901,172.023880 224.841690,171.917267 
	C226.252182,171.911728 227.658188,170.761795 229.066269,170.144653 
	C227.674133,169.696091 226.284103,168.864990 224.889542,168.857300 
	C208.426773,168.766617 191.963303,168.799057 174.500031,168.799179 
z"/>
<path fill="#F1F1F1" opacity="1.000000" stroke="none" 
	d="
M112.732956,146.444504 
	C112.772659,159.969254 112.812355,173.494003 112.318405,187.484253 
	C101.856750,187.969681 91.928749,187.989594 81.586494,188.000671 
	C78.234009,187.775162 76.951721,189.097763 76.961708,192.080627 
	C77.015587,208.184128 77.034821,224.288177 76.945404,240.391357 
	C76.929268,243.296875 78.233803,243.751892 80.813156,244.143860 
	C85.057945,244.788895 85.404381,241.016418 87.293831,239.143173 
	C95.299774,231.205887 103.118996,223.080246 111.296005,215.025696 
	C111.971466,215.034653 112.357376,215.041321 112.743286,215.048004 
	C112.743286,227.511673 112.743286,239.975327 112.743286,252.779800 
	C111.347672,252.907974 110.084030,253.121857 108.819901,253.124817 
	C97.659286,253.151016 86.494751,252.968613 75.339684,253.218613 
	C70.459740,253.327957 68.581726,251.379730 69.041603,246.722916 
	C69.090469,246.228058 69.047043,245.724106 69.047043,245.224380 
	C69.047066,189.420990 69.045227,133.617615 69.049469,77.814232 
	C69.050049,70.163086 69.221542,70.003883 76.896248,70.003708 
	C117.041367,70.002800 157.186493,70.000656 197.331604,70.005890 
	C203.720551,70.006721 204.202530,70.461952 204.220901,76.744637 
	C204.249527,86.538345 204.228455,96.332207 204.228455,106.729034 
	C201.505157,106.729034 199.232101,106.729034 196.593719,106.244797 
	C196.457718,97.804718 196.943604,89.839973 196.667908,81.901680 
	C196.621063,80.552628 193.312653,78.204193 191.499847,78.193336 
	C154.867157,77.974037 118.232780,78.055435 81.598907,77.986572 
	C78.114731,77.980026 76.869232,79.366570 76.941513,82.754150 
	C77.083557,89.411842 77.129456,96.079208 76.925575,102.733704 
	C76.807762,106.579239 78.134750,108.086082 82.105736,108.027245 
	C92.592430,107.871849 103.083992,108.045326 113.573616,108.087883 
	C113.334206,111.572327 113.094795,115.056770 112.261673,118.862411 
	C101.674225,119.133347 91.678291,119.188759 81.687881,118.979759 
	C77.801903,118.898453 76.912300,120.702766 76.936378,124.167366 
	C77.044022,139.659912 76.920273,155.154251 77.071289,170.646072 
	C77.087952,172.354523 78.432655,175.530624 78.982910,175.491867 
	C81.137688,175.340088 83.737976,174.718048 85.246078,173.291275 
	C94.548553,164.490524 103.598839,155.423218 112.732956,146.444504 
z"/>
<path fill="#D0CDDF" opacity="1.000000" stroke="none" 
	d="
M113.914978,107.906952 
	C103.083992,108.045326 92.592430,107.871849 82.105736,108.027245 
	C78.134750,108.086082 76.807762,106.579239 76.925575,102.733704 
	C77.129456,96.079208 77.083557,89.411842 76.941513,82.754150 
	C76.869232,79.366570 78.114731,77.980026 81.598907,77.986572 
	C118.232780,78.055435 154.867157,77.974037 191.499847,78.193336 
	C193.312653,78.204193 196.621063,80.552628 196.667908,81.901680 
	C196.943604,89.839973 196.457718,97.804718 196.163605,106.139908 
	C172.563110,106.611588 149.027145,106.665207 125.492027,106.835876 
	C121.744843,106.863045 118.001472,107.416100 113.914978,107.906952 
M93.256340,96.995262 
	C92.661461,97.292183 92.066574,97.589111 90.214218,98.513687 
	C121.620316,98.513687 151.564621,98.513687 181.508911,98.513687 
	C181.552628,98.249855 181.596359,97.986031 181.640076,97.722198 
	C181.099167,97.470108 180.558258,97.218025 180.006943,96.316849 
	C180.008286,95.883972 180.009613,95.451088 180.735596,94.994164 
	C181.072769,94.190094 181.409958,93.386017 181.747131,92.581947 
	C180.452728,92.396065 179.158524,92.049622 177.863892,92.048027 
	C152.237152,92.016350 126.610161,91.977821 100.983826,92.084541 
	C97.810684,92.097755 94.640938,92.926750 91.469620,93.377724 
	C91.463974,93.690727 91.458336,94.003731 91.452698,94.316734 
	C92.298126,94.550621 93.143555,94.784508 93.994453,95.666725 
	C93.990150,96.098946 93.985847,96.531174 93.256340,96.995262 
M166.496216,81.966484 
	C143.346558,81.966492 120.196892,81.966110 97.047226,81.967613 
	C95.881561,81.967690 94.643250,81.743240 93.572403,82.066299 
	C92.657593,82.342293 91.174812,83.440102 91.274612,83.851120 
	C91.539467,84.941895 92.328842,86.350388 93.270233,86.724190 
	C94.578598,87.243706 96.215698,86.974800 97.712097,86.975365 
	C120.362129,86.983894 143.012161,86.981598 165.662201,86.981003 
	C169.992355,86.980888 174.334824,87.155312 178.644470,86.856979 
	C179.804276,86.776695 180.864273,85.254395 181.970078,84.394035 
	C180.808807,83.586380 179.698212,82.186867 178.476730,82.082268 
	C174.839294,81.770760 171.158310,81.967949 166.496216,81.966484 
M139.500000,103.029091 
	C153.446381,103.029091 167.392776,103.029091 181.339157,103.029091 
	C181.327057,102.584564 181.314957,102.140038 181.302856,101.695511 
	C151.761353,101.695511 122.219849,101.695511 92.678345,101.695511 
	C92.678139,102.140068 92.677940,102.584618 92.677734,103.029175 
	C107.951820,103.029175 123.225914,103.029175 139.500000,103.029091 
z"/>
<path fill="#D0CDDF" opacity="1.000000" stroke="none" 
	d="
M112.813766,146.088715 
	C103.598839,155.423218 94.548553,164.490524 85.246078,173.291275 
	C83.737976,174.718048 81.137688,175.340088 78.982910,175.491867 
	C78.432655,175.530624 77.087952,172.354523 77.071289,170.646072 
	C76.920273,155.154251 77.044022,139.659912 76.936378,124.167366 
	C76.912300,120.702766 77.801903,118.898453 81.687881,118.979759 
	C91.678291,119.188759 101.674225,119.133347 112.180466,119.282181 
	C112.760170,128.164810 112.827370,136.948853 112.813766,146.088715 
M93.901047,136.770157 
	C95.175980,136.551056 96.992256,136.777084 97.614029,136.020920 
	C98.940422,134.407822 100.672089,132.068756 100.325821,130.431488 
	C99.965294,128.726807 97.414322,126.451172 95.710266,126.353195 
	C93.976982,126.253548 90.773010,128.352585 90.612862,129.761581 
	C90.373604,131.866684 92.235725,134.210632 93.901047,136.770157 
z"/>
<path fill="#D0CDDF" opacity="1.000000" stroke="none" 
	d="
M82.000748,188.009491 
	C91.928749,187.989594 101.856750,187.969681 112.232162,187.941284 
	C112.751328,196.660492 112.823067,205.388168 112.819046,214.581940 
	C112.357376,215.041321 111.971466,215.034653 111.293655,214.554474 
	C111.000496,207.600922 110.891808,201.118393 111.041412,194.641830 
	C111.121124,191.190765 109.734177,189.884216 106.320160,189.958939 
	C99.677155,190.104309 93.025002,190.117783 86.385330,189.909286 
	C84.905373,189.862793 83.461327,188.672928 82.000748,188.009491 
z"/>
<path fill="#242336" opacity="1.000000" stroke="none" 
	d="
M252.972168,259.819092 
	C252.698685,259.735870 252.622482,259.571198 252.625488,259.145935 
	C252.859634,259.169495 253.014526,259.453583 252.972168,259.819092 
z"/>
<path fill="#F9F9F9" opacity="1.000000" stroke="none" 
	d="
M222.258316,294.938477 
	C222.274796,294.777588 222.530563,294.675385 222.878357,294.715759 
	C222.970383,294.858368 222.497604,294.997223 222.258316,294.938477 
z"/>
<path fill="#FEF3F1" opacity="1.000000" stroke="none" 
	d="
M252.175629,285.385864 
	C255.261169,282.124451 258.090149,279.136230 261.222687,275.827362 
	C262.673553,277.174042 263.939880,278.349396 265.650940,279.937561 
	C259.679840,286.248108 253.952789,292.300751 247.893539,298.704468 
	C245.061234,295.075104 242.558868,291.868530 239.786545,288.316010 
	C241.340881,287.076141 242.706833,285.986542 244.261505,284.746429 
	C245.680939,286.256744 246.886887,287.539886 249.279099,290.085266 
	C250.238922,288.476044 251.079010,287.067535 252.175629,285.385864 
z"/>
<path fill="#F2FBFD" opacity="1.000000" stroke="none" 
	d="
M229.397644,270.005066 
	C228.797867,269.405212 228.417389,268.718842 228.252945,267.567383 
	C228.641342,267.053406 228.813736,267.004517 228.986115,266.955597 
	C229.261093,267.492828 229.536057,268.030060 229.935638,268.843292 
	C230.047867,269.460785 229.900101,269.727203 229.397644,270.005066 
z"/>
<path fill="#F3451E" opacity="1.000000" stroke="none" 
	d="
M228.937714,145.984955 
	C227.336319,146.435333 225.736832,147.270691 224.133240,147.278610 
	C198.473419,147.405426 172.813065,147.430649 147.152832,147.469696 
	C138.284348,147.483185 138.284332,147.471542 139.807556,138.480988 
	C140.516998,138.271317 140.763290,138.115646 141.009583,137.959976 
	C169.107040,137.879044 197.204483,137.794693 225.301987,137.729660 
	C226.426712,137.727066 227.551865,137.907684 229.240707,138.050674 
	C229.240707,140.220779 229.240707,142.156387 228.973480,144.624634 
	C228.632172,145.253830 228.475159,145.401581 228.497849,145.438339 
	C228.619797,145.635773 228.786484,145.805588 228.937714,145.984955 
z"/>
<path fill="#F35E3D" opacity="1.000000" stroke="none" 
	d="
M200.999725,198.375443 
	C181.871887,198.375656 163.244080,198.379166 144.616257,198.370758 
	C143.288620,198.370148 141.878464,198.532623 140.666809,198.133331 
	C140.021927,197.920792 139.446320,196.691498 139.368744,195.871109 
	C139.323303,195.390411 140.234787,194.532639 140.865860,194.342514 
	C141.785110,194.065552 142.839523,194.220245 143.836319,194.220139 
	C170.613815,194.217041 197.391296,194.217636 224.168793,194.217834 
	C224.834061,194.217834 225.592575,194.015045 226.144516,194.265793 
	C227.180420,194.736389 228.096863,195.469925 229.063004,196.094101 
	C228.024902,196.851593 227.001221,198.241989 225.946396,198.266037 
	C217.800903,198.451614 209.649399,198.372742 200.999725,198.375443 
z"/>
<path fill="#F36343" opacity="1.000000" stroke="none" 
	d="
M161.000107,206.841370 
	C154.513535,206.841187 148.523819,206.940186 142.543091,206.752625 
	C141.424866,206.717560 140.342651,205.534561 139.243820,204.881317 
	C140.392944,204.290756 141.540283,203.188568 142.691452,203.184570 
	C170.296066,203.088547 197.901138,203.089523 225.505798,203.180740 
	C226.691986,203.184647 227.874786,204.218323 229.059158,204.772293 
	C227.825195,205.461594 226.594681,206.744675 225.356766,206.751846 
	C204.071747,206.875168 182.785797,206.841034 161.000107,206.841370 
z"/>
<path fill="#F35B3A" opacity="1.000000" stroke="none" 
	d="
M191.999939,258.714874 
	C175.531021,258.715057 159.561691,258.764038 143.593842,258.633850 
	C142.135269,258.621918 140.686050,257.462463 139.232498,256.835876 
	C140.695038,256.248840 142.155670,255.155334 143.620407,255.149811 
	C170.733902,255.047455 197.847916,255.070908 224.961807,255.087128 
	C226.250153,255.087891 227.538391,255.266876 228.826691,255.362854 
	C229.005432,255.906265 229.184174,256.449677 229.362930,256.993103 
	C227.887558,257.567078 226.418488,258.619110 224.935837,258.638550 
	C214.125397,258.780548 203.312256,258.714996 191.999939,258.714874 
z"/>
<path fill="#F35634" opacity="1.000000" stroke="none" 
	d="
M179.000031,177.196014 
	C194.645020,177.195969 209.790482,177.142807 224.934174,177.282867 
	C226.350082,177.295959 227.754684,178.530212 229.164551,179.197479 
	C227.869797,179.794632 226.576935,180.908051 225.279984,180.912842 
	C197.986084,181.013596 170.691727,180.989243 143.397476,180.989349 
	C143.064621,180.989349 142.673706,181.102325 142.409180,180.967590 
	C141.381470,180.444153 140.393890,179.841873 139.391373,179.268936 
	C140.444748,178.577621 141.491150,177.297684 142.552567,177.285110 
	C154.533722,177.143143 166.517181,177.195602 179.000031,177.196014 
z"/>
<path fill="#F34C27" opacity="1.000000" stroke="none" 
	d="
M196.999939,241.336380 
	C178.862976,241.336685 161.225677,241.382553 143.589722,241.250259 
	C142.176575,241.239670 140.772659,240.000870 139.364471,239.332825 
	C140.703003,238.753189 142.039703,237.672699 143.380310,237.667847 
	C170.500916,237.569427 197.622101,237.564468 224.742584,237.679810 
	C226.158875,237.685822 227.569931,238.926697 228.983414,239.592682 
	C227.473770,240.173874 225.972565,241.231155 224.453125,241.258026 
	C215.471069,241.416794 206.484802,241.336227 196.999939,241.336380 
z"/>
<path fill="#F35634" opacity="1.000000" stroke="none" 
	d="
M149.060532,229.048767 
	C174.214035,229.048737 198.878311,229.046967 223.542603,229.053268 
	C224.873688,229.053619 226.239944,228.957657 227.519882,229.232376 
	C228.098251,229.356506 228.896164,230.291504 228.881271,230.839218 
	C228.865845,231.406921 228.073624,232.272369 227.467239,232.435532 
	C226.370193,232.730713 225.158768,232.641769 223.995071,232.642105 
	C197.330978,232.649979 170.666885,232.649063 144.002792,232.645172 
	C143.004242,232.645020 141.899414,232.853790 141.039841,232.495560 
	C140.316452,232.194092 139.878342,231.208145 139.313934,230.525208 
	C139.900482,230.043365 140.461609,229.187149 141.077988,229.145355 
	C143.566498,228.976639 146.072052,229.059052 149.060532,229.048767 
z"/>
<path fill="#F33910" opacity="1.000000" stroke="none" 
	d="
M140.963669,246.831848 
	C169.075882,246.740524 197.188080,246.628998 225.300293,246.627441 
	C226.499207,246.627365 227.698166,247.645233 228.897110,248.188873 
	C227.752960,248.755402 226.610458,249.812744 225.464447,249.816544 
	C197.847763,249.908417 170.230682,249.899506 142.613831,249.839966 
	C141.608017,249.837799 140.603699,249.138779 139.907623,248.252365 
	C140.465576,247.437424 140.714615,247.134628 140.963669,246.831848 
z"/>
<path fill="#F34D29" opacity="1.000000" stroke="none" 
	d="
M169.000000,223.957291 
	C158.915894,223.760834 149.331512,223.573746 139.749908,223.292328 
	C139.580963,223.287384 139.445297,222.149689 139.180984,221.084763 
	C169.245712,221.084763 199.019470,221.084763 228.793228,221.084763 
	C228.927322,221.649887 229.061417,222.215012 229.195511,222.780136 
	C227.582184,223.172592 225.970352,223.899216 224.355316,223.906342 
	C206.070496,223.986954 187.785187,223.957382 169.000000,223.957291 
z"/>
<path fill="#F34018" opacity="1.000000" stroke="none" 
	d="
M205.999939,215.175201 
	C184.869995,215.175369 164.239944,215.197617 143.610214,215.130295 
	C142.094543,215.125366 140.580994,214.473755 139.066452,214.122803 
	C139.188873,213.544357 139.311279,212.965897 139.433685,212.387451 
	C169.229202,212.387451 199.024719,212.387451 228.820221,212.387451 
	C228.970993,212.861725 229.121750,213.335999 229.272507,213.810272 
	C228.003738,214.265076 226.742813,215.085403 225.464859,215.112885 
	C219.145691,215.248779 212.822021,215.175018 205.999939,215.175201 
z"/>
<path fill="#F34D29" opacity="1.000000" stroke="none" 
	d="
M217.974884,160.020462 
	C221.987671,160.782547 226.268280,158.357956 229.179016,161.650879 
	C229.110107,162.199661 229.041199,162.748428 228.972290,163.297211 
	C227.385757,163.297211 225.799240,163.297195 224.212708,163.297211 
	C197.604889,163.297363 170.997055,163.297562 144.389236,163.297440 
	C143.557755,163.297440 142.639603,163.516876 141.916809,163.235687 
	C141.021194,162.887238 140.287506,162.122589 139.483856,161.537720 
	C140.371170,161.032135 141.206406,160.334549 142.160645,160.075714 
	C143.090134,159.823639 144.141403,160.020386 145.139191,160.020386 
	C169.252533,160.020386 193.365875,160.020416 217.974884,160.020462 
z"/>
<path fill="#F34018" opacity="1.000000" stroke="none" 
	d="
M175.000031,168.799133 
	C191.963303,168.799057 208.426773,168.766617 224.889542,168.857300 
	C226.284103,168.864990 227.674133,169.696091 229.066269,170.144653 
	C227.658188,170.761795 226.252182,171.911728 224.841690,171.917267 
	C197.735901,172.023880 170.629517,172.019165 143.523621,171.927444 
	C142.196167,171.922958 140.872116,170.914810 139.546478,170.374039 
	C140.887329,169.848877 142.222794,168.884903 143.569901,168.868317 
	C153.878677,168.741409 164.189697,168.798981 175.000031,168.799133 
z"/>
<path fill="#F33D15" opacity="1.000000" stroke="none" 
	d="
M228.974411,266.523926 
	C228.813736,267.004517 228.641342,267.053406 228.244202,267.249695 
	C214.698746,267.297546 201.378235,267.155396 188.057358,267.109955 
	C173.393616,267.059906 158.729431,267.128204 144.065842,267.057343 
	C142.446442,267.049530 140.829803,266.467316 139.211884,266.151520 
	C139.289001,265.552399 139.366119,264.953278 139.443237,264.354126 
	C140.795517,264.209900 142.147705,263.941040 143.500122,263.939819 
	C170.495056,263.915283 197.490173,263.887115 224.484512,264.014404 
	C225.980484,264.021454 227.470123,265.368774 228.974411,266.523926 
z"/>
<path fill="#F35D3B" opacity="1.000000" stroke="none" 
	d="
M140.627747,246.804825 
	C140.714615,247.134628 140.465576,247.437424 139.917084,247.793564 
	C139.842377,247.490540 140.067108,247.134171 140.627747,246.804825 
z"/>
<path fill="#F3370D" opacity="1.000000" stroke="none" 
	d="
M229.045731,145.744522 
	C228.786484,145.805588 228.619797,145.635773 228.497849,145.438339 
	C228.475159,145.401581 228.632172,145.253830 228.871002,145.073822 
	C229.075089,145.161591 229.114410,145.332855 229.045731,145.744522 
z"/>
<path fill="#F3370D" opacity="1.000000" stroke="none" 
	d="
M140.748245,137.913956 
	C140.763290,138.115646 140.516998,138.271317 140.156219,138.291931 
	C140.190140,138.060562 140.338516,137.964249 140.748245,137.913956 
z"/>
<path fill="#CFCCDF" opacity="1.000000" stroke="none" 
	d="
M81.586494,188.000671 
	C83.461327,188.672928 84.905373,189.862793 86.385330,189.909286 
	C93.025002,190.117783 99.677155,190.104309 106.320160,189.958939 
	C109.734177,189.884216 111.121124,191.190765 111.041412,194.641830 
	C110.891808,201.118393 111.000496,207.600922 111.004112,214.552216 
	C103.118996,223.080246 95.299774,231.205887 87.293831,239.143173 
	C85.404381,241.016418 85.057945,244.788895 80.813156,244.143860 
	C78.233803,243.751892 76.929268,243.296875 76.945404,240.391357 
	C77.034821,224.288177 77.015587,208.184128 76.961708,192.080627 
	C76.951721,189.097763 78.234009,187.775162 81.586494,188.000671 
M97.685440,195.407318 
	C94.493347,194.470139 91.219704,194.491699 90.613220,198.355347 
	C90.318611,200.232117 91.796967,203.528015 93.356178,204.236145 
	C94.935844,204.953568 98.124634,203.867004 99.683365,202.508743 
	C102.442223,200.104736 100.461105,197.769806 97.685440,195.407318 
z"/>
<path fill="#F0F0F1" opacity="1.000000" stroke="none" 
	d="
M166.995270,81.966438 
	C171.158310,81.967949 174.839294,81.770760 178.476730,82.082268 
	C179.698212,82.186867 180.808807,83.586380 181.970078,84.394035 
	C180.864273,85.254395 179.804276,86.776695 178.644470,86.856979 
	C174.334824,87.155312 169.992355,86.980888 165.662201,86.981003 
	C143.012161,86.981598 120.362129,86.983894 97.712097,86.975365 
	C96.215698,86.974800 94.578598,87.243706 93.270233,86.724190 
	C92.328842,86.350388 91.539467,84.941895 91.274612,83.851120 
	C91.174812,83.440102 92.657593,82.342293 93.572403,82.066299 
	C94.643250,81.743240 95.881561,81.967690 97.047226,81.967613 
	C120.196892,81.966110 143.346558,81.966492 166.995270,81.966438 
z"/>
<path fill="#EDECEF" opacity="1.000000" stroke="none" 
	d="
M93.988983,95.018394 
	C93.143555,94.784508 92.298126,94.550621 91.452698,94.316734 
	C91.458336,94.003731 91.463974,93.690727 91.469620,93.377724 
	C94.640938,92.926750 97.810684,92.097755 100.983826,92.084541 
	C126.610161,91.977821 152.237152,92.016350 177.863892,92.048027 
	C179.158524,92.049622 180.452728,92.396065 181.747131,92.581947 
	C181.409958,93.386017 181.072769,94.190094 179.903442,94.996231 
	C150.710526,95.004997 122.349754,95.011696 93.988983,95.018394 
z"/>
<path fill="#F0F0F1" opacity="1.000000" stroke="none" 
	d="
M180.017349,96.965935 
	C180.558258,97.218025 181.099167,97.470108 181.640076,97.722198 
	C181.596359,97.986031 181.552628,98.249855 181.508911,98.513687 
	C151.564621,98.513687 121.620316,98.513687 90.214218,98.513687 
	C92.066574,97.589111 92.661461,97.292183 94.089462,96.994919 
	C123.287506,96.985031 151.652420,96.975487 180.017349,96.965935 
z"/>
<path fill="#F1F1F1" opacity="1.000000" stroke="none" 
	d="
M139.000000,103.029129 
	C123.225914,103.029175 107.951820,103.029175 92.677734,103.029175 
	C92.677940,102.584618 92.678139,102.140068 92.678345,101.695511 
	C122.219849,101.695511 151.761353,101.695511 181.302856,101.695511 
	C181.314957,102.140038 181.327057,102.584564 181.339157,103.029091 
	C167.392776,103.029091 153.446381,103.029091 139.000000,103.029129 
z"/>
<path fill="#DAD8E5" opacity="1.000000" stroke="none" 
	d="
M180.012146,96.641388 
	C151.652420,96.975487 123.287506,96.985031 94.452072,96.978989 
	C93.985847,96.531174 93.990150,96.098946 93.991714,95.342560 
	C122.349754,95.011696 150.710526,95.004997 179.541122,95.008255 
	C180.009613,95.451088 180.008286,95.883972 180.012146,96.641388 
z"/>
<path fill="#FAFAFC" opacity="1.000000" stroke="none" 
	d="
M93.552475,136.611572 
	C92.235725,134.210632 90.373604,131.866684 90.612862,129.761581 
	C90.773010,128.352585 93.976982,126.253548 95.710266,126.353195 
	C97.414322,126.451172 99.965294,128.726807 100.325821,130.431488 
	C100.672089,132.068756 98.940422,134.407822 97.614029,136.020920 
	C96.992256,136.777084 95.175980,136.551056 93.552475,136.611572 
z"/>
<path fill="#FAFAFC" opacity="1.000000" stroke="none" 
	d="
M98.009125,195.637054 
	C100.461105,197.769806 102.442223,200.104736 99.683365,202.508743 
	C98.124634,203.867004 94.935844,204.953568 93.356178,204.236145 
	C91.796967,203.528015 90.318611,200.232117 90.613220,198.355347 
	C91.219704,194.491699 94.493347,194.470139 98.009125,195.637054 
z"/>
</svg>